#N canvas 315 360 1265 410 12;
#X obj 33 12 inlet message;
#X obj 29 322 outlet message;
#X obj 38 46 list_contain 1 sampler;
#X text 652 130 TODO: better for routing between channels;
#X text 652 50 Message: sampler [bank] [pad] play [velocity];
#X text 652 67 Message: sampler [bank] [pad] stop [velocity];
#X text 652 33 Message: sampler [bank] [pad] choke [track_not_to_stop]
;
#X text 652 85 Message: sampler [bank] [pad] edit_parameter [name]
[value];
#X text 652 16 Message: sampler [bank] [pad] load [path];
#X obj 737 212 bank_________________ 3;
#X obj 563 211 bank_________________ 2;
#X obj 383 212 bank_________________ 1;
#X obj 192 212 bank_________________ 0;
#X obj 175 327 outlet~ channel_0;
#X obj 356 333 outlet~ channel_1;
#X obj 480 336 outlet~ channel_2;
#X obj 600 336 outlet~ channel_3;
#X obj 733 337 outlet~ channel_4;
#X obj 855 337 outlet~ channel_5;
#X obj 978 340 outlet~ channel_6;
#X obj 1099 340 outlet~ channel_7;
#X obj 1235 341 outlet~ channel_8;
#X obj 1357 341 outlet~ channel_9;
#X obj 1481 344 outlet~ channel_10;
#X obj 1601 344 outlet~ channel_11;
#X obj 1734 345 outlet~ channel_12;
#X obj 1855 345 outlet~ channel_13;
#X obj 1980 348 outlet~ channel_14;
#X obj 2101 348 outlet~ channel_15;
#X connect 0 0 2 0;
#X connect 2 0 9 0;
#X connect 2 0 10 0;
#X connect 2 0 11 0;
#X connect 2 0 12 0;
#X connect 9 0 1 0;
#X connect 9 1 13 0;
#X connect 9 2 14 0;
#X connect 9 3 15 0;
#X connect 9 4 16 0;
#X connect 9 5 17 0;
#X connect 9 6 18 0;
#X connect 9 7 19 0;
#X connect 9 8 20 0;
#X connect 9 9 21 0;
#X connect 9 10 22 0;
#X connect 9 11 23 0;
#X connect 9 12 24 0;
#X connect 9 13 25 0;
#X connect 9 14 26 0;
#X connect 9 15 27 0;
#X connect 9 16 28 0;
#X connect 10 0 1 0;
#X connect 10 1 13 0;
#X connect 10 2 14 0;
#X connect 10 3 15 0;
#X connect 10 4 16 0;
#X connect 10 5 17 0;
#X connect 10 6 18 0;
#X connect 10 7 19 0;
#X connect 10 8 20 0;
#X connect 10 9 21 0;
#X connect 10 10 22 0;
#X connect 10 11 23 0;
#X connect 10 12 24 0;
#X connect 10 13 25 0;
#X connect 10 14 26 0;
#X connect 10 15 27 0;
#X connect 10 16 28 0;
#X connect 11 0 1 0;
#X connect 11 1 13 0;
#X connect 11 2 14 0;
#X connect 11 3 15 0;
#X connect 11 4 16 0;
#X connect 11 5 17 0;
#X connect 11 6 18 0;
#X connect 11 7 19 0;
#X connect 11 8 20 0;
#X connect 11 9 21 0;
#X connect 11 10 22 0;
#X connect 11 11 23 0;
#X connect 11 12 24 0;
#X connect 11 13 25 0;
#X connect 11 14 26 0;
#X connect 11 15 27 0;
#X connect 11 16 28 0;
#X connect 12 0 1 0;
#X connect 12 1 13 0;
#X connect 12 2 14 0;
#X connect 12 3 15 0;
#X connect 12 4 16 0;
#X connect 12 5 17 0;
#X connect 12 6 18 0;
#X connect 12 7 19 0;
#X connect 12 8 20 0;
#X connect 12 9 21 0;
#X connect 12 10 22 0;
#X connect 12 11 23 0;
#X connect 12 12 24 0;
#X connect 12 13 25 0;
#X connect 12 14 26 0;
#X connect 12 15 27 0;
#X connect 12 16 28 0;
#X coords 0 410 1 409 650 120 0;
