#N canvas -8 -8 1920 997 12;
#X obj 13 23 track 0;
#X obj 64 406 inlet message;
#X obj 176 21 track 1;
#X obj 345 21 track 2;
#X obj 511 19 track 3;
#X obj 50 827 outlet message;
#X obj 64 446 list_contain 2 \$1;
#X obj 275 547 switchboard________________~;
#X obj 480 547 switchboard________________~;
#X obj 685 547 switchboard________________~;
#X obj 890 547 switchboard________________~;
#X obj 1094 547 switchboard________________~;
#X obj 1299 547 switchboard________________~;
#X obj 1504 547 switchboard________________~;
#X obj 1709 547 switchboard________________~;
#X obj 1913 547 switchboard________________~;
#X obj 2118 547 switchboard________________~;
#X obj 2323 547 switchboard________________~;
#X obj 2528 547 switchboard________________~;
#X obj 2732 547 switchboard________________~;
#X obj 2937 547 switchboard________________~;
#X obj 3142 547 switchboard________________~;
#X obj 3347 547 switchboard________________~;
#X obj 642 841 outlet~ output_0;
#X obj 769 843 outlet~ output_1;
#X obj 897 843 outlet~ output_2;
#X obj 679 19 track 4;
#X obj 846 21 track 5;
#X obj 1015 21 track 6;
#X obj 1181 19 track 7;
#X obj 1349 21 track 8;
#X obj 1516 23 track 9;
#X obj 1685 23 track 10;
#X obj 1851 21 track 11;
#X obj 2019 21 track 12;
#X obj 2186 23 track 13;
#X obj 2355 23 track 14;
#X obj 2521 21 track 15;
#X obj 1024 841 outlet~ output_3;
#X obj 1151 843 outlet~ output_4;
#X obj 1279 843 outlet~ output_5;
#X obj 1409 844 outlet~ output_6;
#X obj 1536 846 outlet~ output_7;
#X obj 1664 846 outlet~ output_8;
#X obj 1791 844 outlet~ output_9;
#X obj 1918 846 outlet~ output_10;
#X obj 2046 846 outlet~ output_11;
#X obj 2174 850 outlet~ output_12;
#X obj 2301 848 outlet~ output_13;
#X obj 2428 850 outlet~ output_14;
#X obj 2556 850 outlet~ output_15;
#X obj 513 491 dac~;
#X connect 0 0 5 0;
#X connect 0 1 7 0;
#X connect 0 1 51 0;
#X connect 0 1 51 1;
#X connect 0 2 7 1;
#X connect 1 0 6 0;
#X connect 2 0 5 0;
#X connect 2 1 8 0;
#X connect 2 1 51 0;
#X connect 2 1 51 1;
#X connect 2 2 8 1;
#X connect 3 0 5 0;
#X connect 3 1 9 0;
#X connect 3 1 51 0;
#X connect 3 1 51 1;
#X connect 3 2 9 1;
#X connect 4 0 5 0;
#X connect 4 1 10 0;
#X connect 4 1 51 0;
#X connect 4 1 51 1;
#X connect 4 2 10 1;
#X connect 6 0 0 0;
#X connect 6 0 4 0;
#X connect 6 0 3 0;
#X connect 6 0 2 0;
#X connect 6 0 26 0;
#X connect 6 0 27 0;
#X connect 6 0 28 0;
#X connect 6 0 29 0;
#X connect 6 0 30 0;
#X connect 6 0 31 0;
#X connect 6 0 32 0;
#X connect 6 0 33 0;
#X connect 6 0 34 0;
#X connect 6 0 35 0;
#X connect 6 0 36 0;
#X connect 6 0 37 0;
#X connect 7 0 23 0;
#X connect 7 1 24 0;
#X connect 7 2 25 0;
#X connect 7 3 38 0;
#X connect 7 4 39 0;
#X connect 7 5 40 0;
#X connect 7 6 41 0;
#X connect 7 7 42 0;
#X connect 7 8 43 0;
#X connect 7 9 44 0;
#X connect 7 10 45 0;
#X connect 7 11 46 0;
#X connect 7 12 47 0;
#X connect 7 13 48 0;
#X connect 7 14 49 0;
#X connect 7 15 50 0;
#X connect 8 0 23 0;
#X connect 8 1 24 0;
#X connect 8 2 25 0;
#X connect 8 3 38 0;
#X connect 8 4 39 0;
#X connect 8 5 40 0;
#X connect 8 6 41 0;
#X connect 8 7 42 0;
#X connect 8 8 43 0;
#X connect 8 9 44 0;
#X connect 8 10 45 0;
#X connect 8 11 46 0;
#X connect 8 12 47 0;
#X connect 8 13 48 0;
#X connect 8 14 49 0;
#X connect 8 15 50 0;
#X connect 9 0 23 0;
#X connect 9 1 24 0;
#X connect 9 2 25 0;
#X connect 9 3 38 0;
#X connect 9 4 39 0;
#X connect 9 5 40 0;
#X connect 9 6 41 0;
#X connect 9 7 42 0;
#X connect 9 8 43 0;
#X connect 9 9 44 0;
#X connect 9 10 45 0;
#X connect 9 11 46 0;
#X connect 9 12 47 0;
#X connect 9 13 48 0;
#X connect 9 14 49 0;
#X connect 9 15 50 0;
#X connect 10 0 23 0;
#X connect 10 1 24 0;
#X connect 10 2 25 0;
#X connect 10 3 38 0;
#X connect 10 4 39 0;
#X connect 10 5 40 0;
#X connect 10 6 41 0;
#X connect 10 7 42 0;
#X connect 10 8 43 0;
#X connect 10 9 44 0;
#X connect 10 10 45 0;
#X connect 10 11 46 0;
#X connect 10 12 47 0;
#X connect 10 13 48 0;
#X connect 10 14 49 0;
#X connect 10 15 50 0;
#X connect 11 0 23 0;
#X connect 11 1 24 0;
#X connect 11 2 25 0;
#X connect 11 3 38 0;
#X connect 11 4 39 0;
#X connect 11 5 40 0;
#X connect 11 6 41 0;
#X connect 11 7 42 0;
#X connect 11 8 43 0;
#X connect 11 9 44 0;
#X connect 11 10 45 0;
#X connect 11 11 46 0;
#X connect 11 12 47 0;
#X connect 11 13 48 0;
#X connect 11 14 49 0;
#X connect 11 15 50 0;
#X connect 12 0 23 0;
#X connect 12 1 24 0;
#X connect 12 2 25 0;
#X connect 12 3 38 0;
#X connect 12 4 39 0;
#X connect 12 5 40 0;
#X connect 12 6 41 0;
#X connect 12 7 42 0;
#X connect 12 8 43 0;
#X connect 12 9 44 0;
#X connect 12 10 45 0;
#X connect 12 11 46 0;
#X connect 12 12 47 0;
#X connect 12 13 48 0;
#X connect 12 14 49 0;
#X connect 12 15 50 0;
#X connect 13 0 23 0;
#X connect 13 1 24 0;
#X connect 13 2 25 0;
#X connect 13 3 38 0;
#X connect 13 4 39 0;
#X connect 13 5 40 0;
#X connect 13 6 41 0;
#X connect 13 7 42 0;
#X connect 13 8 43 0;
#X connect 13 9 44 0;
#X connect 13 10 45 0;
#X connect 13 11 46 0;
#X connect 13 12 47 0;
#X connect 13 13 48 0;
#X connect 13 14 49 0;
#X connect 13 15 50 0;
#X connect 14 0 23 0;
#X connect 14 1 24 0;
#X connect 14 2 25 0;
#X connect 14 3 38 0;
#X connect 14 4 39 0;
#X connect 14 5 40 0;
#X connect 14 6 41 0;
#X connect 14 7 42 0;
#X connect 14 8 43 0;
#X connect 14 9 44 0;
#X connect 14 10 45 0;
#X connect 14 11 46 0;
#X connect 14 12 47 0;
#X connect 14 13 48 0;
#X connect 14 14 49 0;
#X connect 14 15 50 0;
#X connect 15 0 23 0;
#X connect 15 1 24 0;
#X connect 15 2 25 0;
#X connect 15 3 38 0;
#X connect 15 4 39 0;
#X connect 15 5 40 0;
#X connect 15 6 41 0;
#X connect 15 7 42 0;
#X connect 15 8 43 0;
#X connect 15 9 44 0;
#X connect 15 10 45 0;
#X connect 15 11 46 0;
#X connect 15 12 47 0;
#X connect 15 13 48 0;
#X connect 15 14 49 0;
#X connect 15 15 50 0;
#X connect 16 0 23 0;
#X connect 16 1 24 0;
#X connect 16 2 25 0;
#X connect 16 3 38 0;
#X connect 16 4 39 0;
#X connect 16 5 40 0;
#X connect 16 6 41 0;
#X connect 16 7 42 0;
#X connect 16 8 43 0;
#X connect 16 9 44 0;
#X connect 16 10 45 0;
#X connect 16 11 46 0;
#X connect 16 12 47 0;
#X connect 16 13 48 0;
#X connect 16 14 49 0;
#X connect 16 15 50 0;
#X connect 17 0 23 0;
#X connect 17 1 24 0;
#X connect 17 2 25 0;
#X connect 17 3 38 0;
#X connect 17 4 39 0;
#X connect 17 5 40 0;
#X connect 17 6 41 0;
#X connect 17 7 42 0;
#X connect 17 8 43 0;
#X connect 17 9 44 0;
#X connect 17 10 45 0;
#X connect 17 11 46 0;
#X connect 17 12 47 0;
#X connect 17 13 48 0;
#X connect 17 14 49 0;
#X connect 17 15 50 0;
#X connect 18 0 23 0;
#X connect 18 1 24 0;
#X connect 18 2 25 0;
#X connect 18 3 38 0;
#X connect 18 4 39 0;
#X connect 18 5 40 0;
#X connect 18 6 41 0;
#X connect 18 7 42 0;
#X connect 18 8 43 0;
#X connect 18 9 44 0;
#X connect 18 10 45 0;
#X connect 18 11 46 0;
#X connect 18 12 47 0;
#X connect 18 13 48 0;
#X connect 18 14 49 0;
#X connect 18 15 50 0;
#X connect 19 0 23 0;
#X connect 19 1 24 0;
#X connect 19 2 25 0;
#X connect 19 3 38 0;
#X connect 19 4 39 0;
#X connect 19 5 40 0;
#X connect 19 6 41 0;
#X connect 19 7 42 0;
#X connect 19 8 43 0;
#X connect 19 9 44 0;
#X connect 19 10 45 0;
#X connect 19 11 46 0;
#X connect 19 12 47 0;
#X connect 19 13 48 0;
#X connect 19 14 49 0;
#X connect 19 15 50 0;
#X connect 20 0 23 0;
#X connect 20 1 24 0;
#X connect 20 2 25 0;
#X connect 20 3 38 0;
#X connect 20 4 39 0;
#X connect 20 5 40 0;
#X connect 20 6 41 0;
#X connect 20 7 42 0;
#X connect 20 8 43 0;
#X connect 20 9 44 0;
#X connect 20 10 45 0;
#X connect 20 11 46 0;
#X connect 20 12 47 0;
#X connect 20 13 48 0;
#X connect 20 14 49 0;
#X connect 20 15 50 0;
#X connect 21 0 23 0;
#X connect 21 1 24 0;
#X connect 21 2 25 0;
#X connect 21 3 38 0;
#X connect 21 4 39 0;
#X connect 21 5 40 0;
#X connect 21 6 41 0;
#X connect 21 7 42 0;
#X connect 21 8 43 0;
#X connect 21 9 44 0;
#X connect 21 10 45 0;
#X connect 21 11 46 0;
#X connect 21 12 47 0;
#X connect 21 13 48 0;
#X connect 21 14 49 0;
#X connect 21 15 50 0;
#X connect 22 0 23 0;
#X connect 22 1 24 0;
#X connect 22 2 25 0;
#X connect 22 3 38 0;
#X connect 22 4 39 0;
#X connect 22 5 40 0;
#X connect 22 6 41 0;
#X connect 22 7 42 0;
#X connect 22 8 43 0;
#X connect 22 9 44 0;
#X connect 22 10 45 0;
#X connect 22 11 46 0;
#X connect 22 12 47 0;
#X connect 22 13 48 0;
#X connect 22 14 49 0;
#X connect 22 15 50 0;
#X connect 26 1 11 0;
#X connect 26 1 51 0;
#X connect 26 1 51 1;
#X connect 26 2 11 1;
#X connect 27 1 12 0;
#X connect 27 1 51 0;
#X connect 27 1 51 1;
#X connect 27 2 12 1;
#X connect 28 1 13 0;
#X connect 28 1 51 0;
#X connect 28 1 51 1;
#X connect 28 2 13 1;
#X connect 29 1 14 0;
#X connect 29 1 51 0;
#X connect 29 1 51 1;
#X connect 29 2 14 1;
#X connect 30 1 15 0;
#X connect 30 1 51 0;
#X connect 30 1 51 1;
#X connect 30 2 15 1;
#X connect 31 1 16 0;
#X connect 31 1 51 0;
#X connect 31 1 51 1;
#X connect 31 2 16 1;
#X connect 32 1 17 0;
#X connect 32 1 51 0;
#X connect 32 1 51 1;
#X connect 32 2 17 1;
#X connect 33 1 18 0;
#X connect 33 1 51 0;
#X connect 33 1 51 1;
#X connect 33 2 18 1;
#X connect 34 1 19 0;
#X connect 34 1 51 0;
#X connect 34 1 51 1;
#X connect 34 2 19 1;
#X connect 35 1 20 0;
#X connect 35 1 51 0;
#X connect 35 1 51 1;
#X connect 35 2 20 1;
#X connect 36 1 21 0;
#X connect 36 1 51 0;
#X connect 36 1 51 1;
#X connect 36 2 21 1;
#X connect 37 1 22 0;
#X connect 37 1 51 0;
#X connect 37 1 51 1;
#X connect 37 2 22 1;
#X coords 0 997 1 996 100 80 0;
