#N canvas 494 339 845 425 12;
#X obj 103 49 inlet play;
#X obj 188 50 inlet stop;
#X obj 101 516 outlet~;
#X msg 220 209 stop;
#X obj 372 375 tgl 15 0 empty empty playing 17 7 0 10 -262144 -1 -1
0 1;
#X obj 188 103 t b b;
#X obj 279 52 inlet current_voice;
#X obj 280 110 tgl 15 0 empty empty empty 17 7 0 10 -262144 -1 -1 1
1;
#X obj 279 80 expr \$2 == $f1;
#X obj 103 153 spigot;
#X obj 366 516 outlet state;
#X msg 406 344 0;
#X msg 371 345 1;
#X obj 372 404 sel 0 1;
#X msg 403 457 1;
#X msg 366 458 -1;
#X obj 101 285 tabplay~ \$1-sample-\$2;
#X obj 441 50 inlet velocity;
#X obj 102 206 t b b b;
#X obj 124 328 expr $f2;
#X obj 124 394 line~;
#X obj 102 432 *~;
#X msg 124 364 \$1 20;
#X connect 0 0 9 0;
#X connect 1 0 5 0;
#X connect 3 0 16 0;
#X connect 4 0 13 0;
#X connect 5 0 11 0;
#X connect 5 1 3 0;
#X connect 6 0 8 0;
#X connect 7 0 9 1;
#X connect 8 0 7 0;
#X connect 9 0 18 0;
#X connect 11 0 4 0;
#X connect 12 0 4 0;
#X connect 13 0 15 0;
#X connect 13 1 14 0;
#X connect 14 0 10 0;
#X connect 15 0 10 0;
#X connect 16 0 21 0;
#X connect 16 1 11 0;
#X connect 17 0 19 1;
#X connect 18 0 16 0;
#X connect 18 1 19 0;
#X connect 18 2 12 0;
#X connect 19 0 22 0;
#X connect 20 0 21 1;
#X connect 21 0 2 0;
#X connect 22 0 20 0;
#X coords 0 425 1 424 100 80 0;
