#N canvas 170 184 845 395 12;
#X obj 269 153 list;
#X msg 174 205 add2 -resize;
#X msg 57 204 set \, add2 read;
#X msg 268 201 add2 \$1;
#X obj 244 100 t b a b b;
#X obj 215 24 inlet path;
#X obj 256 318 soundfiler;
#X obj 214 62 t b a;
#X obj 531 77 f \$1;
#X obj 673 75 f \$2;
#X obj 389 155 pack \$1 \$2;
#X msg 263 273 read -resize ../sound/kick.wav 1008-sample-6;
#X msg 351 216 add2 \$1-sample-\$2;
#X connect 0 0 3 0;
#X connect 1 0 11 0;
#X connect 2 0 11 0;
#X connect 3 0 11 0;
#X connect 4 0 10 0;
#X connect 4 1 0 0;
#X connect 4 2 1 0;
#X connect 4 3 2 0;
#X connect 5 0 7 0;
#X connect 7 0 11 0;
#X connect 7 1 4 0;
#X connect 10 0 12 0;
#X connect 11 0 6 0;
#X connect 12 0 11 0;
#X coords 0 395 1 394 100 80 0;
