#N canvas 20 199 1614 635 12;
#X obj 676 45 bng 15 250 50 0 empty empty load_sound_in_arrays 17 7
0 10 -262144 -1 -1;
#X obj 271 135 make_sample \$0 1;
#X obj 146 134 make_sample \$0 0;
#X obj 400 133 make_sample \$0 2;
#X obj 529 132 make_sample \$0 3;
#X obj 142 167 table \$0-sample-0;
#X obj 274 166 table \$0-sample-1;
#X obj 401 166 table \$0-sample-2;
#X obj 525 167 table \$0-sample-3;
#X obj 651 131 make_sample \$0 4;
#X obj 780 130 make_sample \$0 5;
#X obj 909 132 make_sample \$0 6;
#X obj 1038 131 make_sample \$0 7;
#X obj 652 164 table \$0-sample-4;
#X obj 776 165 table \$0-sample-5;
#X obj 910 165 table \$0-sample-6;
#X obj 1034 166 table \$0-sample-7;
#X obj 170 248 bng 15 250 50 0 empty empty play 17 7 0 10 -262144 -1
-1;
#X obj 867 720 bng 15 250 50 0 empty empty ended 17 7 0 10 -262144
-1 -1;
#X obj 333 243 bng 15 250 50 0 empty empty stop 17 7 0 10 -262144 -1
-1;
#X floatatom 243 374 5 0 0 0 current_voice - -;
#X obj 218 315 expr $f2 + 1;
#X obj 220 340 expr if ($f1 < $f2 \, $f1 \, 0);
#X obj 169 274 t b b b;
#X obj 194 404 expr $f2;
#X floatatom 867 663 5 0 0 0 number_playing - -;
#X obj 867 571 expr $f2 + $f1;
#X msg 918 635 0;
#X obj 867 604 min;
#X obj 867 694 sel 0;
#X obj 867 634 max 0;
#X obj 170 -55 inlet play;
#X obj 330 -51 inlet stop;
#X obj 449 -56 inlet voice_number;
#X obj 867 750 outlet ended;
#X obj 335 751 outlet~ sound;
#X obj 675 -55 inlet loaded_file;
#X obj 934 -56 loadbang;
#X obj 935 -23 bng 15 250 50 0 empty empty empty 17 7 0 10 -262144
-1 -1;
#X obj 1121 -36 inlet velocity;
#X obj 399 394 expr $f2;
#X obj 37 479 sample_player \$0 0;
#X obj 190 479 sample_player \$0 1;
#X obj 330 481 sample_player \$0 2;
#X obj 476 483 sample_player \$0 3;
#X obj 623 479 sample_player \$0 4;
#X obj 766 479 sample_player \$0 5;
#X obj 903 479 sample_player \$0 6;
#X obj 1043 480 sample_player \$0 7;
#X connect 17 0 23 0;
#X connect 18 0 34 0;
#X connect 19 0 41 1;
#X connect 19 0 42 1;
#X connect 19 0 43 1;
#X connect 19 0 44 1;
#X connect 19 0 45 1;
#X connect 19 0 46 1;
#X connect 19 0 47 1;
#X connect 19 0 48 1;
#X connect 20 0 21 1;
#X connect 20 0 24 1;
#X connect 21 0 22 0;
#X connect 22 0 20 0;
#X connect 23 0 41 0;
#X connect 23 0 42 0;
#X connect 23 0 43 0;
#X connect 23 0 44 0;
#X connect 23 0 45 0;
#X connect 23 0 46 0;
#X connect 23 0 47 0;
#X connect 23 0 48 0;
#X connect 23 1 24 0;
#X connect 23 1 40 0;
#X connect 23 2 21 0;
#X connect 24 0 41 2;
#X connect 24 0 42 2;
#X connect 24 0 43 2;
#X connect 24 0 44 2;
#X connect 24 0 45 2;
#X connect 24 0 46 2;
#X connect 24 0 47 2;
#X connect 24 0 48 2;
#X connect 25 0 26 1;
#X connect 25 0 29 0;
#X connect 26 0 28 0;
#X connect 27 0 25 0;
#X connect 28 0 30 0;
#X connect 29 0 18 0;
#X connect 30 0 25 0;
#X connect 31 0 17 0;
#X connect 32 0 19 0;
#X connect 33 0 22 1;
#X connect 33 0 28 1;
#X connect 36 0 0 0;
#X connect 36 0 2 0;
#X connect 36 0 4 0;
#X connect 36 0 1 0;
#X connect 36 0 3 0;
#X connect 36 0 9 0;
#X connect 36 0 10 0;
#X connect 36 0 11 0;
#X connect 36 0 12 0;
#X connect 37 0 38 0;
#X connect 38 0 27 0;
#X connect 39 0 40 1;
#X connect 40 0 41 3;
#X connect 40 0 42 3;
#X connect 40 0 43 3;
#X connect 40 0 44 3;
#X connect 40 0 45 3;
#X connect 40 0 46 3;
#X connect 40 0 47 3;
#X connect 40 0 48 3;
#X connect 41 0 35 0;
#X connect 41 1 26 0;
#X connect 42 0 35 0;
#X connect 42 1 26 0;
#X connect 43 0 35 0;
#X connect 43 1 26 0;
#X connect 44 0 35 0;
#X connect 44 1 26 0;
#X connect 45 0 35 0;
#X connect 45 1 26 0;
#X connect 46 0 35 0;
#X connect 46 1 26 0;
#X connect 47 0 35 0;
#X connect 47 1 26 0;
#X connect 48 0 35 0;
#X connect 48 1 26 0;
#X coords 0 635 1 634 100 80 0;
