#N canvas 401 126 1437 668 12;
#X obj 241 12 loadbang;
#X obj 241 80 bng 15 250 50 0 empty empty init 17 7 0 10 -262144 -1
-1;
#X obj 593 573 line~;
#X obj 574 606 *~;
#X msg 593 542 \$1 20;
#X obj 573 365 bng 15 250 50 0 empty empty play 17 7 0 10 -262144 -1
-1;
#X obj 758 579 bng 15 250 50 0 empty empty ended 17 7 0 10 -262144
-1 -1;
#X obj 672 372 bng 15 250 50 0 empty empty stop 17 7 0 10 -262144 -1
-1;
#X floatatom 116 78 5 0 0 0 voices_number - -;
#X obj 601 266 min 8;
#X obj 600 236 max 1;
#X floatatom 116 58 5 0 0 0 choke - -;
#X floatatom 116 21 5 0 0 0 volume - -;
#X floatatom 116 248 5 0 0 0 transpose - -;
#X floatatom 116 268 5 0 0 0 detune - -;
#X floatatom 116 39 5 0 0 0 output_channel - -;
#X floatatom 116 287 5 0 0 0 random_transpose - -;
#X floatatom 116 308 5 0 0 0 random_detune - -;
#X floatatom 116 329 5 0 0 0 random_velocity - -;
#X obj 190 341 sel 1;
#X obj 572 742 outlet~ sound;
#X obj 574 514 samples;
#X obj 450 740 outlet message;
#X floatatom 114 162 5 0 0 0 attack - -;
#X floatatom 115 182 5 0 0 0 decay - -;
#X msg 190 274 \$2;
#X obj 374 496 expr $f2;
#X obj 374 436 sel 1;
#X obj 374 530 pack f f;
#X msg 374 561 choke \$1 track \$2;
#X obj 374 465 t b b;
#X obj 444 498 expr \$1;
#X obj 352 16 inlet message;
#X obj 374 405 expr $f2 >= 0;
#X obj 374 592 list;
#X obj 375 622 s general_choke_message;
#X obj 190 210 r general_choke_message;
#X obj 190 313 expr $f2 >=0 && $f1 == $f2 && $f3 != \$1;
#X obj 190 242 t a a;
#X msg 225 272 \$4;
#X obj 377 371 bng 15 250 50 0 empty empty choke 17 7 0 10 -262144
-1 -1;
#X obj 573 308 t b b a;
#X obj 618 398 route velocity;
#X msg 618 437 \$1;
#X msg 709 436 1;
#X obj 359 60 list_contain 3 \$1;
#X obj 566 134 list_contain 4 play;
#X obj 713 132 list_contain 4 stop;
#X obj 868 132 list_contain 4 load;
#X msg 868 222 \$5;
#X obj 861 178 t a b;
#X obj 693 743 outlet output;
#X obj 1052 133 list_contain 4 edit_parameter;
#X msg 1062 168 \$5 \$6;
#X floatatom 115 201 5 0 0 0 sustain - -;
#X floatatom 115 220 5 0 0 0 release - -;
#X obj 1061 264 route transpose detune random_transpose random_detune
random_velocity;
#X obj 1082 220 route attack decay sustain release;
#X floatatom 117 98 5 0 0 0 playing_mode - -;
#X floatatom 117 116 5 0 0 0 start - -;
#X floatatom 118 136 5 0 0 0 length - -;
#X obj 1028 321 route output_channel volume choke voices_number playing_mode
start length;
#X obj 769 665 pack f f;
#X obj 755 636 expr \$2;
#X obj 825 639 expr \$3;
#X obj 783 609 t b b;
#X msg 752 704 sampler \$1 \$2 stopped;
#X connect 0 0 1 0;
#X connect 2 0 3 1;
#X connect 3 0 20 0;
#X connect 4 0 2 0;
#X connect 5 0 21 0;
#X connect 6 0 65 0;
#X connect 7 0 21 1;
#X connect 8 0 10 0;
#X connect 9 0 21 2;
#X connect 10 0 9 0;
#X connect 11 0 26 1;
#X connect 11 0 33 1;
#X connect 11 0 37 1;
#X connect 12 0 4 0;
#X connect 15 0 51 0;
#X connect 19 0 7 0;
#X connect 21 0 3 0;
#X connect 21 1 6 0;
#X connect 25 0 37 0;
#X connect 26 0 28 0;
#X connect 27 0 30 0;
#X connect 28 0 29 0;
#X connect 29 0 34 0;
#X connect 30 0 26 0;
#X connect 30 1 31 0;
#X connect 31 0 28 1;
#X connect 32 0 45 0;
#X connect 33 0 27 0;
#X connect 34 0 35 0;
#X connect 36 0 38 0;
#X connect 37 0 19 0;
#X connect 38 0 25 0;
#X connect 38 1 39 0;
#X connect 39 0 37 2;
#X connect 40 0 33 0;
#X connect 41 0 5 0;
#X connect 41 1 40 0;
#X connect 41 2 42 0;
#X connect 42 0 43 0;
#X connect 42 1 44 0;
#X connect 43 0 21 4;
#X connect 44 0 21 4;
#X connect 45 0 46 0;
#X connect 45 0 47 0;
#X connect 45 0 48 0;
#X connect 45 0 52 0;
#X connect 46 0 41 0;
#X connect 47 0 7 0;
#X connect 48 0 50 0;
#X connect 49 0 21 3;
#X connect 50 0 49 0;
#X connect 50 1 7 0;
#X connect 52 0 53 0;
#X connect 53 0 56 0;
#X connect 53 0 57 0;
#X connect 53 0 61 0;
#X connect 56 0 13 0;
#X connect 56 1 14 0;
#X connect 56 2 16 0;
#X connect 56 3 17 0;
#X connect 56 4 18 0;
#X connect 57 0 23 0;
#X connect 57 1 24 0;
#X connect 57 2 54 0;
#X connect 57 3 55 0;
#X connect 61 0 15 0;
#X connect 61 1 12 0;
#X connect 61 2 11 0;
#X connect 61 3 8 0;
#X connect 61 4 58 0;
#X connect 61 5 59 0;
#X connect 61 6 60 0;
#X connect 62 0 66 0;
#X connect 63 0 62 0;
#X connect 64 0 62 1;
#X connect 65 0 63 0;
#X connect 65 1 64 0;
#X connect 66 0 22 0;
#X coords 0 -1 1 1 160 350 1 0 0;
