#N canvas 223 402 1329 574 12;
#X obj 184 19 inlet~ channel_0;
#X obj 373 17 inlet~ channel_1;
#X obj 521 15 inlet~ channel_2;
#X obj 661 19 inlet~ channel_3;
#X obj -25 524 outlet message;
#X obj 254 533 outlet~ output_0;
#X obj 385 535 outlet~ output_1;
#X obj 523 536 outlet~ output_2;
#X obj 92 528 outlet~ phone_output;
#X obj 653 538 outlet~ output_3;
#X obj 465 388 switchboard________________~;
#X obj 667 388 switchboard________________~;
#X obj 870 389 switchboard________________~;
#X obj 1075 389 switchboard________________~;
#X obj 1278 390 switchboard________________~;
#X obj 1480 390 switchboard________________~;
#X obj 1683 391 switchboard________________~;
#X obj 1886 391 switchboard________________~;
#X obj 2089 392 switchboard________________~;
#X obj 2291 392 switchboard________________~;
#X obj 2494 393 switchboard________________~;
#X obj 2699 393 switchboard________________~;
#X obj 2902 394 switchboard________________~;
#X obj 3104 394 switchboard________________~;
#X obj 3307 395 switchboard________________~;
#X obj 793 17 inlet~ channel_4;
#X obj 959 15 inlet~ channel_5;
#X obj 1123 26 inlet~ channel_6;
#X obj 1268 22 inlet~ channel_7;
#X obj 1425 24 inlet~ channel_8;
#X obj 1589 17 inlet~ channel_9;
#X obj 1744 24 inlet~ channel_10;
#X obj 1899 26 inlet~ channel_11;
#X obj 2073 27 inlet~ channel_12;
#X obj 2235 30 inlet~ channel_13;
#X obj 2392 29 inlet~ channel_14;
#X obj 2535 26 inlet~ channel_15;
#X obj 262 387 switchboard________________~;
#X obj 162 129 track 0;
#X obj 318 127 track 1;
#X obj 476 127 track 2;
#X obj 636 127 track 3;
#X obj 797 127 track 4;
#X obj 954 130 track 5;
#X obj 1107 128 track 6;
#X obj 1269 129 track 7;
#X obj 1428 128 track 8;
#X obj 1588 127 track 9;
#X obj 1747 126 track 10;
#X obj 1902 128 track 11;
#X obj 2061 127 track 12;
#X obj 2227 131 track 13;
#X obj 2386 128 track 14;
#X obj 2544 125 track 15;
#X obj -4 69 list_contain 1 audio_mixer;
#X obj 3 17 inlet message;
#X connect 0 0 38 1;
#X connect 1 0 39 1;
#X connect 2 0 40 1;
#X connect 3 0 41 1;
#X connect 10 0 5 0;
#X connect 10 1 6 0;
#X connect 10 2 7 0;
#X connect 10 3 9 0;
#X connect 11 0 5 0;
#X connect 11 1 6 0;
#X connect 11 2 7 0;
#X connect 11 3 9 0;
#X connect 12 0 5 0;
#X connect 12 1 6 0;
#X connect 12 2 7 0;
#X connect 12 3 9 0;
#X connect 13 0 5 0;
#X connect 13 1 6 0;
#X connect 13 2 7 0;
#X connect 13 3 9 0;
#X connect 14 0 5 0;
#X connect 14 1 6 0;
#X connect 14 2 7 0;
#X connect 14 3 9 0;
#X connect 15 0 5 0;
#X connect 15 1 6 0;
#X connect 15 2 7 0;
#X connect 15 3 9 0;
#X connect 16 0 5 0;
#X connect 16 1 6 0;
#X connect 16 2 7 0;
#X connect 16 3 9 0;
#X connect 17 0 5 0;
#X connect 17 1 6 0;
#X connect 17 2 7 0;
#X connect 17 3 9 0;
#X connect 18 0 5 0;
#X connect 18 1 6 0;
#X connect 18 2 7 0;
#X connect 18 3 9 0;
#X connect 19 0 5 0;
#X connect 19 1 6 0;
#X connect 19 2 7 0;
#X connect 19 3 9 0;
#X connect 20 0 5 0;
#X connect 20 1 6 0;
#X connect 20 2 7 0;
#X connect 20 3 9 0;
#X connect 21 0 5 0;
#X connect 21 1 6 0;
#X connect 21 2 7 0;
#X connect 21 3 9 0;
#X connect 22 0 5 0;
#X connect 22 1 6 0;
#X connect 22 2 7 0;
#X connect 22 3 9 0;
#X connect 23 0 5 0;
#X connect 23 1 6 0;
#X connect 23 2 7 0;
#X connect 23 3 9 0;
#X connect 24 0 5 0;
#X connect 24 1 6 0;
#X connect 24 2 7 0;
#X connect 24 3 9 0;
#X connect 25 0 42 1;
#X connect 26 0 43 1;
#X connect 27 0 44 1;
#X connect 28 0 45 1;
#X connect 29 0 46 1;
#X connect 30 0 47 1;
#X connect 31 0 48 1;
#X connect 32 0 49 1;
#X connect 33 0 50 1;
#X connect 34 0 51 1;
#X connect 35 0 52 1;
#X connect 36 0 53 1;
#X connect 37 0 5 0;
#X connect 37 1 6 0;
#X connect 37 2 7 0;
#X connect 37 3 9 0;
#X connect 38 0 4 0;
#X connect 38 1 8 0;
#X connect 38 1 37 0;
#X connect 38 2 37 1;
#X connect 39 0 4 0;
#X connect 39 1 8 0;
#X connect 39 1 10 0;
#X connect 39 2 10 1;
#X connect 40 0 4 0;
#X connect 40 1 8 0;
#X connect 40 1 11 0;
#X connect 40 2 11 1;
#X connect 41 0 4 0;
#X connect 41 1 8 0;
#X connect 41 1 12 0;
#X connect 41 2 12 1;
#X connect 42 1 8 0;
#X connect 42 1 13 0;
#X connect 42 2 13 1;
#X connect 43 1 8 0;
#X connect 43 1 14 0;
#X connect 43 2 14 1;
#X connect 44 1 8 0;
#X connect 44 1 15 0;
#X connect 44 2 15 1;
#X connect 45 1 8 0;
#X connect 45 1 16 0;
#X connect 45 2 16 1;
#X connect 46 1 8 0;
#X connect 46 1 17 0;
#X connect 46 2 17 1;
#X connect 47 1 8 0;
#X connect 47 1 18 0;
#X connect 47 2 18 1;
#X connect 48 1 8 0;
#X connect 48 1 19 0;
#X connect 48 2 19 1;
#X connect 49 1 8 0;
#X connect 49 1 20 0;
#X connect 49 2 20 1;
#X connect 50 1 8 0;
#X connect 50 1 21 0;
#X connect 50 2 21 1;
#X connect 51 1 8 0;
#X connect 51 1 22 0;
#X connect 51 2 22 1;
#X connect 52 1 8 0;
#X connect 52 1 23 0;
#X connect 52 2 23 1;
#X connect 53 1 8 0;
#X connect 53 1 24 0;
#X connect 53 2 24 1;
#X connect 54 0 38 0;
#X connect 54 0 39 0;
#X connect 54 0 40 0;
#X connect 54 0 41 0;
#X connect 54 0 42 0;
#X connect 54 0 43 0;
#X connect 54 0 44 0;
#X connect 54 0 45 0;
#X connect 54 0 46 0;
#X connect 54 0 47 0;
#X connect 54 0 48 0;
#X connect 54 0 49 0;
#X connect 54 0 50 0;
#X connect 54 0 51 0;
#X connect 54 0 52 0;
#X connect 54 0 53 0;
#X connect 55 0 54 0;
#X coords 0 574 1 573 550 100 0;
