#N canvas 112 189 997 574 12;
#X obj 355 14 inlet message;
#X obj 538 18 inlet~ sound;
#X floatatom 107 47 5 0 0 0 volume - -;
#X floatatom 107 67 5 0 0 0 output_channel - -;
#X obj 534 522 outlet~ sound;
#X obj 667 522 outlet output;
#X obj 833 170 *~;
#X obj 853 141 line;
#X msg 853 116 \$1 20;
#X obj 187 14 loadbang;
#X obj 186 42 bng 15 250 50 0 empty empty init 17 7 0 10 -262144 -1
-1;
#X obj 351 518 outlet message;
#X obj 305 170 list_contain 3 edit_parameter;
#X msg 315 205 \$4 \$5;
#X obj 304 120 list_contain 2 \$1;
#X floatatom 108 87 5 0 0 0 effects_send - -;
#X obj 313 264 route output_channel volume effects_send;
#X obj 600 168 list_contain 3 effect;
#X obj 742 293 audio_effects/chorus;
#X obj 897 294 audio_effects/reverb;
#X obj 587 292 audio_effects/echo;
#X obj 416 290 audio_effects/equalizer;
#X obj 94 25 tgl 15 0 empty empty muted 17 7 0 10 -262144 -1 -1 0 1
;
#X connect 0 0 14 0;
#X connect 1 0 6 0;
#X connect 2 0 8 0;
#X connect 3 0 5 0;
#X connect 6 0 21 1;
#X connect 7 0 6 1;
#X connect 8 0 7 0;
#X connect 9 0 10 0;
#X connect 12 0 13 0;
#X connect 13 0 16 0;
#X connect 14 0 12 0;
#X connect 14 0 17 0;
#X connect 16 0 3 0;
#X connect 16 1 2 0;
#X connect 16 2 15 0;
#X connect 17 0 19 0;
#X connect 17 0 20 0;
#X connect 17 0 18 0;
#X connect 17 0 21 0;
#X connect 18 0 11 0;
#X connect 18 1 19 1;
#X connect 19 0 11 0;
#X connect 19 1 4 0;
#X connect 20 0 11 0;
#X connect 20 1 18 1;
#X connect 21 0 11 0;
#X connect 21 1 20 1;
#X coords 0 -1 1 1 150 150 1 0 0;
