#N canvas 2289 0 719 565 12;
#X obj 633 -149 network;
#N canvas 0 50 1077 699 midi 0;
#X obj 453 60 notein;
#X floatatom 5 35 5 0 0 0 - - -;
#X floatatom 43 36 5 0 0 0 - - -;
#X floatatom 655 71 0 0 0 0 - - -;
#X floatatom 609 71 5 0 0 0 - - -;
#X obj 609 43 bendin, f 7;
#X floatatom 616 173 5 0 0 0 - - -;
#X obj 611 92 expr $f1/2000;
#X obj 627 276 pack f f;
#X obj 633 230 t a a;
#X obj 694 247 expr $f2;
#X obj 623 306 route 1 2 3 4 5 6 7 8 9;
#X obj 817 355 s midi_mode;
#X obj 462 354 s midi_sequence;
#X obj 588 354 s midi_pattern;
#X obj 711 353 s midi_track;
#X obj 618 203 change;
#X obj 614 117 expr rint($f1) \; round($f1) \; nearbyint($f1) \;,
f 24;
#X obj 27 235 midi_button 54 edit;
#X obj 40 269 midi_button 54 edit;
#X obj 61 316 midi_button 54 edit;
#X obj 111 355 midi_button 54 edit;
#X obj 131 389 midi_button 54 edit;
#X obj 361 480 midi_button 2 pad2;
#X obj 372 514 midi_button 3 pad3;
#X obj 403 542 midi_button 4 pad4;
#X obj 416 576 midi_button 5 pad5;
#X obj 438 601 midi_button 6 pad6;
#X obj 450 628 midi_button 7 pad7;
#X obj 326 421 midi_button 0 pad0;
#X obj 337 455 midi_button 1 pad1;
#X obj 9 17 tgl 15 0 empty empty actived 17 7 0 10 -262144 -1 -1 1
1;
#X obj 193 10 loadbang;
#X msg 195 44 1;
#X obj 490 144 expr $f2;
#X obj 433 178 pack f f;
#X obj 450 109 t f b;
#X obj 439 241 s midi_message;
#X obj 436 207 spigot;
#X obj 250 242 midi_button 98 arrow_left;
#X obj 254 270 midi_button 99 arrow_right;
#X obj 256 299 midi_button 96 arrow_up;
#X obj 260 326 midi_button 97 arrow_down;
#X connect 0 0 1 0;
#X connect 0 0 36 0;
#X connect 0 1 2 0;
#X connect 0 1 34 1;
#X connect 3 0 10 1;
#X connect 4 0 7 0;
#X connect 5 0 4 0;
#X connect 5 1 3 0;
#X connect 6 0 16 0;
#X connect 7 0 17 0;
#X connect 8 0 11 0;
#X connect 9 0 8 1;
#X connect 9 1 10 0;
#X connect 10 0 8 0;
#X connect 11 0 13 0;
#X connect 11 1 14 0;
#X connect 11 2 15 0;
#X connect 11 8 12 0;
#X connect 16 0 9 0;
#X connect 17 0 6 0;
#X connect 31 0 38 1;
#X connect 32 0 33 0;
#X connect 33 0 31 0;
#X connect 34 0 35 1;
#X connect 35 0 38 0;
#X connect 36 0 35 0;
#X connect 36 1 34 0;
#X connect 38 0 37 0;
#X coords 0 -1 1 1 85 60 1 0 0;
#X restore 704 -288 pd midi;
#X obj 533 -189 bng 15 250 50 0 empty empty init 17 7 0 10 -4160 -1
-1;
#X obj 885 -307 clock;
#X msg 445 -277 sampler 0 0 play velocity 1;
#X msg 442 -250 sampler 0 1 play velocity 1;
#X msg 54 -192 load sounds/instruments/organ/organ-1.wav;
#X msg 2 -247 file_explorer open C:/Users/Nicolas/magiamerlini-data/sounds/instruments/organ
;
#X obj 114 -293 textfile;
#X obj 333 -157 user_interface/_display;
#X obj 591 191 user_interface/_padboard;
#X obj 29 -35 sampler/_sampler________________;
#X obj 72 65 mixer/_mixer________________;
#X obj 21 -67 video/_video;
#X obj 816 -219 user_interface/_inputs;
#X obj 45 180 io_devices/_audio_output;
#X connect 0 0 3 0;
#X connect 0 0 9 1;
#X connect 0 0 10 0;
#X connect 0 0 11 0;
#X connect 0 0 12 0;
#X connect 0 0 13 0;
#X connect 2 0 9 0;
#X connect 3 0 0 0;
#X connect 4 0 0 1;
#X connect 5 0 0 1;
#X connect 6 0 0 0;
#X connect 7 0 0 1;
#X connect 10 0 0 0;
#X connect 11 0 0 0;
#X connect 11 1 12 1;
#X connect 11 2 12 2;
#X connect 11 3 12 3;
#X connect 11 4 12 4;
#X connect 11 5 12 5;
#X connect 11 6 12 6;
#X connect 11 7 12 7;
#X connect 11 8 12 8;
#X connect 11 9 12 9;
#X connect 11 10 12 10;
#X connect 11 11 12 11;
#X connect 11 12 12 12;
#X connect 11 13 12 13;
#X connect 11 14 12 14;
#X connect 11 15 12 15;
#X connect 11 16 12 16;
#X connect 12 0 0 0;
#X connect 12 1 15 0;
#X connect 12 2 15 1;
#X connect 12 3 15 2;
#X connect 12 4 15 3;
#X connect 12 5 15 4;
#X connect 13 0 0 1;
#X connect 14 0 0 0;
#X coords 0 565 1 564 100 80 0;
