#N canvas 103 82 999 599 12;
#X obj 71 33 bng 15 250 50 0 empty empty tick 17 7 0 10 -262144 -1
-1;
#X msg 54 286 1;
#X msg 89 286 0;
#X floatatom 30 33 5 0 0 0 bpm - -;
#X floatatom 52 245 5 0 0 0 speed - -;
#X obj 68 318 metro;
#X obj 665 263 bng 15 250 50 0 empty empty start 17 7 0 10 -262144
-1 -1;
#X obj 71 9 bng 15 250 50 0 empty empty stop 17 7 0 10 -262144 -1 -1
;
#X floatatom 173 154 5 0 0 0 step - -;
#X obj 30 75 min 400;
#X obj 162 289 expr \$1;
#X obj 660 46 list_contain 1 metronome;
#X obj 601 198 list_contain 3 play;
#X obj 749 197 list_contain 3 pause;
#X obj 438 208 list_contain 3 bpm;
#X obj 438 233 list_contain 5 step;
#X obj 448 281 t a a;
#X msg 440 312 \$4;
#X msg 483 314 \$6;
#X obj 35 113 t a b;
#X obj 41 212 expr 60000 / ($f1*$f2);
#X obj 644 147 list_min_length 3;
#X obj 662 78 list_contain 2 \$1;
#X obj 430 152 list_min_length 6;
#X text 207 16 messsage format: metronome (number) ("play"/"pause")
;
#X obj 173 178 min 24;
#X obj 659 17 inlet message;
#X obj 168 356 outlet message;
#X msg 168 323 clock number=\$1 action=tick;
#X text 208 38 messsage format: metronome (number) bpm (number) step
(number);
#X connect 0 0 10 0;
#X connect 1 0 5 0;
#X connect 2 0 5 0;
#X connect 3 0 9 0;
#X connect 4 0 5 1;
#X connect 5 0 0 0;
#X connect 6 0 1 0;
#X connect 7 0 2 0;
#X connect 8 0 25 0;
#X connect 9 0 19 0;
#X connect 10 0 28 0;
#X connect 11 0 22 0;
#X connect 12 0 6 0;
#X connect 13 0 7 0;
#X connect 14 0 15 0;
#X connect 15 0 16 0;
#X connect 16 0 17 0;
#X connect 16 1 18 0;
#X connect 17 0 3 0;
#X connect 18 0 8 0;
#X connect 19 0 20 0;
#X connect 19 1 8 0;
#X connect 20 0 4 0;
#X connect 21 0 12 0;
#X connect 21 0 13 0;
#X connect 22 0 21 0;
#X connect 22 0 23 0;
#X connect 23 0 14 0;
#X connect 25 0 20 1;
#X connect 26 0 11 0;
#X connect 28 0 27 0;
#X coords 0 -1 1 1 120 60 1 0 0;
