#N canvas 509 170 845 395 12;
#X obj 123 188 expr $f2>0;
#X msg 158 254 0;
#X msg 120 251 1;
#X obj 125 221 sel 1;
#X obj 122 153 sel \$1;
#X obj 96 107 t a b;
#X obj 199 138 expr $f2;
#X obj 93 19 r midi_message;
#X obj 94 58 unpack f f;
#X obj 130 302 s control_button_\$2;
#X connect 0 0 3 0;
#X connect 1 0 9 0;
#X connect 2 0 9 0;
#X connect 3 0 2 0;
#X connect 3 1 1 0;
#X connect 4 0 0 0;
#X connect 5 0 4 0;
#X connect 5 1 6 0;
#X connect 6 0 0 1;
#X connect 7 0 8 0;
#X connect 8 0 5 0;
#X connect 8 1 6 1;
#X coords 0 395 1 394 100 80 0;
