#N canvas 616 309 845 395 12;
#X msg 143 280 disconnect;
#X floatatom 137 373 0 0 0 0 - - -;
#X obj 137 346 netsend;
#X obj 4 21 bng 15 250 50 0 empty empty launch 17 7 0 10 -4034 -1 -1
;
#X msg 123 249 connect localhost \$1;
#X obj 187 202 t f f;
#X floatatom 57 96 5 0 0 0 port - -;
#X obj 4 39 bng 15 250 50 0 empty empty stop 17 7 0 10 -258113 -1 -1
;
#X msg 187 144 3000;
#X text 399 59 get/set send message format: itemType identifier1 [identifier2
\, ...][ data1Key=data1Value \, ...];
#X text 396 100 get/set response message format: itemType [identifier1
\, ...] dataKey;
#X obj 292 319 list trim;
#X obj 299 409 print REQUEST_SEND;
#X obj 613 293 print REQUEST_RESPONSE;
#X obj 168 408 list;
#X obj 616 246 spigot;
#X obj 4 58 tgl 15 0 empty empty debug 17 7 0 10 -204786 -1 -1 0 1
;
#X obj 293 367 spigot;
#X obj 282 21 inlet request;
#X obj 167 464 outlet response;
#X obj 166 39 bng 15 250 50 0 empty empty empty 17 7 0 10 -262144 -1
-1;
#X obj 171 12 loadbang;
#X msg 164 69 3000;
#X obj 371 280 list append;
#X obj 352 189 t b a;
#X msg 371 247 send;
#X obj 186 102 t b b;
#X obj 52 154 t b b;
#X obj 24 121 tgl 25 0 empty empty connected 17 7 0 10 -261234 -1 -1
0 1;
#X msg 45 231 0;
#X msg 5 234 1;
#X obj 399 19 inlet test_response;
#X obj 329 462 outlet reinit;
#X obj 527 371 list_contain 2 connected;
#X msg 205 70 0;
#X obj 527 349 list_contain 1 network;
#X msg 527 412 network connected;
#X connect 0 0 2 0;
#X connect 2 0 1 0;
#X connect 2 1 14 0;
#X connect 3 0 26 0;
#X connect 4 0 2 0;
#X connect 5 0 4 0;
#X connect 7 0 27 0;
#X connect 8 0 6 0;
#X connect 8 0 5 0;
#X connect 11 0 2 0;
#X connect 11 0 17 0;
#X connect 14 0 19 0;
#X connect 14 0 15 0;
#X connect 14 0 35 0;
#X connect 15 0 13 0;
#X connect 16 0 17 1;
#X connect 16 0 15 1;
#X connect 17 0 12 0;
#X connect 18 0 24 0;
#X connect 20 0 22 0;
#X connect 20 0 34 0;
#X connect 21 0 20 0;
#X connect 22 0 6 0;
#X connect 23 0 11 0;
#X connect 24 0 25 0;
#X connect 24 1 23 1;
#X connect 25 0 23 0;
#X connect 26 0 8 0;
#X connect 26 1 30 0;
#X connect 26 1 32 0;
#X connect 27 0 32 0;
#X connect 27 1 0 0;
#X connect 27 1 29 0;
#X connect 29 0 28 0;
#X connect 30 0 28 0;
#X connect 31 0 14 0;
#X connect 33 0 36 0;
#X connect 35 0 33 0;
#X connect 36 0 24 0;
#X coords 0 -1 1 1 100 150 1 0 0;
