#N canvas 2314 0 694 565 12;
#X msg 784 300 disconnect;
#X floatatom 764 355 0 0 0 0 connections - -;
#X obj 763 328 netsend;
#X obj 5 11 bng 15 250 50 0 empty empty launch_server 17 7 0 10 -4034
-1 -1;
#X msg 764 271 connect localhost \$1;
#X floatatom 109 88 5 0 0 0 client_port - -;
#X obj 5 47 bng 15 250 50 0 empty empty stop 17 7 0 10 -258113 -1 -1
;
#X msg 763 239 3000;
#X obj 544 271 list trim;
#X obj 271 432 list;
#X obj 308 471 spigot;
#X obj 106 46 tgl 15 0 empty empty debug 17 7 0 10 -204786 -1 -1 0
1;
#X obj 547 466 spigot;
#X obj 397 8 inlet request;
#X obj 167 29 bng 15 250 50 0 empty empty empty 17 7 0 10 -262144 -1
-1;
#X obj 172 2 loadbang;
#X obj 543 242 list append;
#X obj 539 179 t b a;
#X msg 537 214 send;
#X obj 47 172 t b b;
#X obj 14 111 tgl 25 0 empty empty server_connected 17 7 0 10 -261234
-1 -1 0 1;
#X msg 82 211 0;
#X msg 29 216 1;
#X obj 523 12 inlet test_response;
#X obj 1061 572 outlet reinit;
#X obj 670 91 list_contain 2 connected;
#X obj 670 69 list_contain 1 network;
#X msg 672 116 network action=connected;
#X floatatom 339 407 5 0 0 0 connections - -;
#X floatatom 109 66 5 0 0 0 serve_port - -;
#X msg 268 318 listen \$1;
#X obj 5 29 bng 15 250 50 0 empty empty connect_as_client 17 7 0 10
-4034 -1 -1;
#X obj 119 173 t b b;
#X msg 303 348 listen 0;
#X msg 267 279 3001;
#X obj 274 379 netreceive;
#X obj 273 569 outlet client_message;
#X obj 816 563 outlet server_message;
#X obj 812 382 list;
#X obj 861 470 spigot;
#X obj 863 501 print NETSEND_RESPONSE;
#X obj 309 498 print NETRECEIVE_RESPONSE;
#X obj 548 500 print REQUEST_SEND;
#X connect 0 0 2 0;
#X connect 2 0 1 0;
#X connect 2 1 38 0;
#X connect 3 0 34 0;
#X connect 4 0 2 0;
#X connect 6 0 19 0;
#X connect 6 0 33 0;
#X connect 7 0 5 0;
#X connect 7 0 4 0;
#X connect 8 0 2 0;
#X connect 8 0 12 0;
#X connect 9 0 26 0;
#X connect 9 0 10 0;
#X connect 9 0 36 0;
#X connect 10 0 41 0;
#X connect 11 0 12 1;
#X connect 11 0 10 1;
#X connect 11 0 5 0;
#X connect 11 0 39 1;
#X connect 12 0 42 0;
#X connect 13 0 17 0;
#X connect 15 0 14 0;
#X connect 16 0 8 0;
#X connect 17 0 18 0;
#X connect 17 1 16 1;
#X connect 18 0 16 0;
#X connect 19 0 24 0;
#X connect 19 1 0 0;
#X connect 19 1 21 0;
#X connect 21 0 20 0;
#X connect 22 0 20 0;
#X connect 23 0 9 0;
#X connect 25 0 27 0;
#X connect 26 0 25 0;
#X connect 27 0 17 0;
#X connect 30 0 35 0;
#X connect 31 0 32 0;
#X connect 32 0 7 0;
#X connect 32 1 22 0;
#X connect 32 1 24 0;
#X connect 33 0 35 0;
#X connect 34 0 30 0;
#X connect 34 0 29 0;
#X connect 35 0 9 0;
#X connect 35 1 28 0;
#X connect 38 0 37 0;
#X connect 38 0 39 0;
#X connect 39 0 40 0;
#X coords 0 -1 1 1 150 150 1 0 0;
