#N canvas 539 297 845 562 12;
#X symbolatom 71 65 28 0 0 0 mode - -;
#X symbolatom 348 494 15 0 0 0 - - -;
#X symbolatom 71 30 15 0 0 0 project - -;
#X symbolatom 348 515 15 0 0 0 - - -;
#X text 742 76 message format: display mode_name (text);
#X text 748 101 message format: display project_name (text);
#X obj 328 116 list_contain 1 display;
#X obj 754 334 list_contain 2 mode_name;
#X obj 944 335 list_contain 2 project_name;
#X msg 245 370 symbol \$3;
#X msg 749 371 symbol \$3;
#X msg 947 381 symbol \$3;
#X msg 488 364 \$3;
#X obj 249 336 list_contain 2 parameter_name;
#X obj 486 335 list_contain 2 parameter_value;
#X floatatom 327 494 2 0 0 0 param - -;
#X text 743 38 message format: display parameter_name (text);
#X text 742 58 message format: display parameter_value (number);
#X obj 11 398 f;
#X msg 14 363 \$3;
#X obj 22 258 tgl 15 0 empty empty playing 17 7 0 10 -204786 -1 -1
0 1;
#X text 749 118 message format: display playing (number);
#X obj 330 148 list_min_length 3;
#X msg 1170 394 \$3;
#X obj 1169 350 list_contain 2 playing;
#X symbolatom 70 121 28 0 0 0 item - -;
#X symbolatom 70 199 28 0 0 0 position - -;
#X msg 72 709 symbol \$3;
#X obj 314 686 list_contain 2 player_position;
#X msg 962 694 symbol \$3;
#X symbolatom 71 86 28 0 0 0 selection - -;
#X obj 954 664 list_contain 2 selection;
#X msg 314 724 symbol \$3;
#X obj 328 25 inlet request_response;
#X text 746 22 message format: display parameter_index [number];
#X obj 13 335 list_contain 2 parameter_index;
#X obj 71 681 list_contain 2 selected_item;
#X obj 189 29 tgl 30 0 empty empty loading 17 7 0 10 -261234 -1 -1
1 1;
#X obj 782 685 list_contain 2 loading;
#X obj 764 717 list_contain 3 started;
#X obj 930 719 list_contain 3 ended;
#X msg 771 743 1;
#X msg 925 750 0;
#X msg 526 52 ----;
#X obj 582 56 bng 15 250 50 0 empty empty init 17 7 0 10 -262144 -1
-1;
#X obj 583 31 inlet init;
#X msg 557 109 0;
#X obj 509 79 symbol;
#X obj 494 474 list fromsymbol;
#X obj 584 504 list length;
#X obj 503 554 list split 2;
#X obj 584 530 - 1;
#X obj 511 592 list tosymbol;
#X symbolatom 512 636 10 0 0 0 - - -;
#X msg 494 446 symbol \$1^;
#X obj 489 401 route symbol float;
#X msg 410 424 symbol \$3;
#X obj 22 278 tgl 15 0 empty empty record 17 7 0 10 -204786 -1 -1 0
1;
#X obj 117 256 tgl 15 0 empty empty metronome 17 7 0 10 -204786 -1
-1 0 1;
#X obj 117 275 tgl 15 0 empty empty precount 17 7 0 10 -204786 -1 -1
0 1;
#X msg 1351 395 \$3;
#X msg 1533 394 \$3;
#X obj 1350 351 list_contain 2 record;
#X obj 1532 350 list_contain 2 metronome;
#X msg 1718 396 \$3;
#X obj 1717 352 list_contain 2 precount;
#X symbolatom 70 219 28 0 0 0 signature - -;
#X msg 536 724 symbol \$3;
#X obj 536 686 list_contain 2 master_signature;
#X symbolatom 70 142 28 0 0 0 parameter - -;
#X obj 39 500 list_contain 2 parameter;
#X msg 40 528 symbol \$3;
#X connect 6 0 22 0;
#X connect 7 0 10 0;
#X connect 8 0 11 0;
#X connect 9 0 1 0;
#X connect 10 0 0 0;
#X connect 11 0 2 0;
#X connect 12 0 55 0;
#X connect 13 0 9 0;
#X connect 14 0 12 0;
#X connect 18 0 15 0;
#X connect 19 0 18 0;
#X connect 22 0 14 0;
#X connect 22 0 13 0;
#X connect 22 0 8 0;
#X connect 22 0 7 0;
#X connect 22 0 24 0;
#X connect 22 0 31 0;
#X connect 22 0 28 0;
#X connect 22 0 35 0;
#X connect 22 0 36 0;
#X connect 22 0 38 0;
#X connect 22 0 62 0;
#X connect 22 0 65 0;
#X connect 22 0 63 0;
#X connect 22 0 68 0;
#X connect 22 0 70 0;
#X connect 23 0 20 0;
#X connect 24 0 23 0;
#X connect 27 0 25 0;
#X connect 28 0 32 0;
#X connect 29 0 30 0;
#X connect 31 0 29 0;
#X connect 32 0 26 0;
#X connect 33 0 6 0;
#X connect 35 0 19 0;
#X connect 36 0 27 0;
#X connect 38 0 39 0;
#X connect 38 0 40 0;
#X connect 39 0 41 0;
#X connect 40 0 42 0;
#X connect 41 0 1 0;
#X connect 41 0 37 0;
#X connect 42 0 1 0;
#X connect 42 0 37 0;
#X connect 43 0 47 0;
#X connect 44 0 43 0;
#X connect 44 0 46 0;
#X connect 45 0 44 0;
#X connect 46 0 37 0;
#X connect 46 0 20 0;
#X connect 46 0 15 0;
#X connect 46 0 58 0;
#X connect 46 0 59 0;
#X connect 46 0 57 0;
#X connect 47 0 2 0;
#X connect 47 0 0 0;
#X connect 47 0 30 0;
#X connect 47 0 26 0;
#X connect 47 0 25 0;
#X connect 47 0 1 0;
#X connect 47 0 3 0;
#X connect 47 0 66 0;
#X connect 48 0 49 0;
#X connect 48 0 50 0;
#X connect 49 0 51 0;
#X connect 50 0 52 0;
#X connect 51 0 50 1;
#X connect 52 0 53 0;
#X connect 52 0 3 0;
#X connect 54 0 48 0;
#X connect 55 0 56 0;
#X connect 55 1 54 0;
#X connect 56 0 3 0;
#X connect 60 0 35 0;
#X connect 60 0 14 0;
#X connect 60 0 8 0;
#X connect 60 0 9 0;
#X connect 60 0 57 0;
#X connect 61 0 58 0;
#X connect 62 0 60 0;
#X connect 63 0 61 0;
#X connect 64 0 55 0;
#X connect 64 0 59 0;
#X connect 65 0 64 0;
#X connect 67 0 66 0;
#X connect 68 0 67 0;
#X connect 70 0 71 0;
#X connect 71 0 69 0;
#X coords 0 -1 1 1 280 300 1 0 0;
