#N canvas 346 224 991 394 12;
#X obj 112 484 outlet message;
#X obj 858 231 switch precount;
#X obj 858 271 switch metronome;
#X obj 1022 457 bng 15 250 50 0 empty empty refresh 17 7 0 10 -262144
-1 -1;
#X obj 1003 546 t b b b b b b b;
#X obj 694 15 selector mode;
#X obj 694 55 selector sequence;
#X obj 694 95 selector pattern;
#X obj 694 135 selector page;
#X obj 694 175 selector track;
#X obj 314 18 file_explorer;
#X obj 769 448 inlet message;
#X obj 858 311 switch record;
#X obj 539 102 button load action;
#X obj 539 312 button copy action;
#X obj 539 52 button new action;
#X obj 340 137 button enter navigation;
#X obj 8 169 button left navigation;
#X obj 166 169 button rigth navigation;
#X obj 84 219 button down navigation;
#X obj 697 224 wheel navigation;
#X obj 1111 23 button up mode;
#X obj 1251 132 button up sequence;
#X obj 1109 136 button up pattern;
#X obj 1109 186 button down pattern;
#X obj 1251 182 button down sequence;
#X obj 1111 73 button down mode;
#X obj 1108 300 button down track;
#X obj 1257 251 button up page;
#X obj 1108 250 button up track;
#X obj 1257 301 button down page;
#X obj 180 343 button play player;
#X obj 310 343 button pause player;
#X obj 310 293 button forward player;
#X obj 995 56 button 0 bank;
#X obj 995 106 button 1 bank;
#X obj 995 156 button 2 bank;
#X obj 995 206 button 3 bank;
#X obj 340 187 button return navigation;
#X obj 539 212 button edit action;
#X obj 539 262 button move action;
#X obj 539 152 button save action;
#X obj 84 119 button up navigation;
#X obj 152 293 button backward player;
#X connect 1 0 0 0;
#X connect 2 0 0 0;
#X connect 3 0 4 0;
#X connect 4 0 5 0;
#X connect 4 1 6 0;
#X connect 4 2 7 0;
#X connect 4 3 8 0;
#X connect 4 5 9 0;
#X connect 5 0 0 0;
#X connect 6 0 0 0;
#X connect 7 0 0 0;
#X connect 8 0 0 0;
#X connect 9 0 0 0;
#X connect 10 0 0 0;
#X connect 11 0 10 0;
#X connect 12 0 0 0;
#X connect 13 0 0 0;
#X connect 14 0 0 0;
#X connect 15 0 0 0;
#X connect 16 0 0 0;
#X connect 17 0 0 0;
#X connect 18 0 0 0;
#X connect 19 0 0 0;
#X connect 20 0 0 0;
#X connect 21 0 0 0;
#X connect 22 0 0 0;
#X connect 23 0 0 0;
#X connect 24 0 0 0;
#X connect 25 0 0 0;
#X connect 26 0 0 0;
#X connect 27 0 0 0;
#X connect 28 0 0 0;
#X connect 29 0 0 0;
#X connect 30 0 0 0;
#X connect 31 0 0 0;
#X connect 32 0 0 0;
#X connect 33 0 0 0;
#X connect 34 0 0 0;
#X connect 35 0 0 0;
#X connect 36 0 0 0;
#X connect 37 0 0 0;
#X connect 38 0 0 0;
#X connect 39 0 0 0;
#X connect 40 0 0 0;
#X connect 41 0 0 0;
#X connect 42 0 0 0;
#X connect 43 0 0 0;
#X coords 0 -1 1 1 1400 400 1 0 0;
