#N canvas 2071 95 845 395 12;
#X obj 18 36 button enter;
#X obj 235 37 button return;
#X obj 480 107 button copy;
#X obj 480 157 button swap;
#X obj 480 207 button loop;
#X obj 136 252 button play;
#X obj 217 252 button pause;
#X obj 112 484 outlet message;
#X obj 322 138 wheel main_wheel;
#X obj 352 5 switch precount;
#X obj 352 45 switch metronome;
#X obj 901 54 bng 15 250 50 0 empty empty refresh 17 7 0 10 -262144
-1 -1;
#X obj 882 143 t b b b b b b b;
#X obj 594 20 selector mode;
#X obj 594 60 selector sequence;
#X obj 594 100 selector pattern;
#X obj 594 140 selector page;
#X obj 594 180 selector track;
#X obj 480 7 button load;
#X obj 115 60 button up_arrow;
#X obj 39 111 button left_arrow;
#X obj 163 111 button right_arrow;
#X obj 105 162 button down_arrow;
#X obj 480 57 button select;
#X obj 480 257 button new;
#X obj 159 313 file_explorer;
#X obj 882 12 inlet message;
#X obj 352 85 switch record;
#X obj 27 252 button backward;
#X obj 305 252 button forward;
#X obj 452 339 button bank 0;
#X obj 547 339 button bank 1;
#X obj 642 339 button bank 2;
#X obj 737 339 button bank 3;
#X connect 0 0 7 0;
#X connect 1 0 7 0;
#X connect 2 0 7 0;
#X connect 3 0 7 0;
#X connect 4 0 7 0;
#X connect 5 0 7 0;
#X connect 6 0 7 0;
#X connect 8 0 7 0;
#X connect 9 0 7 0;
#X connect 10 0 7 0;
#X connect 11 0 12 0;
#X connect 12 0 13 0;
#X connect 12 1 14 0;
#X connect 12 2 15 0;
#X connect 12 3 16 0;
#X connect 12 5 17 0;
#X connect 13 0 7 0;
#X connect 14 0 7 0;
#X connect 15 0 7 0;
#X connect 16 0 7 0;
#X connect 17 0 7 0;
#X connect 18 0 7 0;
#X connect 19 0 7 0;
#X connect 20 0 7 0;
#X connect 21 0 7 0;
#X connect 22 0 7 0;
#X connect 23 0 7 0;
#X connect 24 0 7 0;
#X connect 25 0 7 0;
#X connect 26 0 25 0;
#X connect 27 0 7 0;
#X connect 28 0 7 0;
#X connect 29 0 7 0;
#X connect 30 0 7 0;
#X connect 31 0 7 0;
#X connect 32 0 7 0;
#X connect 33 0 7 0;
#X coords 0 -1 1 1 850 400 1 0 0;
