#N canvas 108 318 845 395 12;
#X obj 103 30 pad 1;
#X obj 188 29 pad 2;
#X obj 279 33 pad 3;
#X obj 18 120 pad 4;
#X obj 105 123 pad 5;
#X obj 192 121 pad 6;
#X obj 276 120 pad 7;
#X obj 21 208 pad 8;
#X obj 106 207 pad 9;
#X obj 195 207 pad 10;
#X obj 277 207 pad 11;
#X obj 17 290 pad 12;
#X obj 108 289 pad 13;
#X obj 193 291 pad 14;
#X obj 17 31 pad 0;
#X text 652 21 message format: pad (num) state (text);
#X obj 536 55 list_contain 1 pad;
#X obj 513 198 r control_button_pad0;
#X obj 517 224 r control_button_pad1;
#X obj 523 244 r control_button_pad2;
#X obj 536 266 r control_button_pad3;
#X obj 528 291 r control_button_pad4;
#X obj 537 313 r control_button_pad5;
#X obj 538 340 r control_button_pad6;
#X obj 528 367 r control_button_pad7;
#X obj 533 21 inlet message;
#X obj 67 398 outlet message;
#X obj 278 292 pad 15;
#X connect 0 0 26 0;
#X connect 1 0 26 0;
#X connect 2 0 26 0;
#X connect 3 0 26 0;
#X connect 4 0 26 0;
#X connect 5 0 26 0;
#X connect 6 0 26 0;
#X connect 7 0 26 0;
#X connect 8 0 26 0;
#X connect 9 0 26 0;
#X connect 10 0 26 0;
#X connect 11 0 26 0;
#X connect 12 0 26 0;
#X connect 13 0 26 0;
#X connect 14 0 26 0;
#X connect 16 0 10 0;
#X connect 16 0 2 0;
#X connect 16 0 1 0;
#X connect 16 0 0 0;
#X connect 16 0 14 0;
#X connect 16 0 27 0;
#X connect 16 0 13 0;
#X connect 16 0 12 0;
#X connect 16 0 11 0;
#X connect 16 0 9 0;
#X connect 16 0 8 0;
#X connect 16 0 7 0;
#X connect 16 0 6 0;
#X connect 16 0 5 0;
#X connect 16 0 4 0;
#X connect 16 0 3 0;
#X connect 17 0 14 1;
#X connect 18 0 0 1;
#X connect 19 0 1 1;
#X connect 20 0 2 1;
#X connect 21 0 3 1;
#X connect 22 0 4 1;
#X connect 23 0 5 1;
#X connect 24 0 6 1;
#X connect 25 0 16 0;
#X connect 27 0 26 0;
#X coords 0 -1 1 1 380 380 1 0 0;
