#N canvas 122 345 845 517 12;
#X msg 317 198 pressed;
#X msg 263 199 leaved;
#X obj 241 167 sel 0 1;
#X obj 3 16 bng 15 250 50 0 empty empty fast 17 7 0 10 -4034 -1 -1
;
#X obj 3 34 tgl 15 0 empty empty held 17 7 0 10 -228856 -1 -1 0 1;
#X obj 318 249 symbol;
#X obj 39 248 symbol;
#X obj 23 212 list append \$1;
#X obj 84 420 outlet;
#X msg 502 162 stop;
#X obj 502 74 bng 15 250 50 0 empty empty release_soon 17 7 0 10 -262144
-1 -1;
#X msg 492 248 0;
#X msg 549 246 1;
#X obj 500 108 t b b b;
#X obj 452 203 delay 100 1 msec;
#X obj 71 295 pack s s s;
#X obj 114 97 t b b f;
#X obj 140 265 symbol;
#X obj 141 209 list append \$2;
#X msg 75 323 button name=\$1 section=\$2 action=\$3;
#X connect 0 0 5 0;
#X connect 1 0 5 0;
#X connect 2 0 1 0;
#X connect 2 1 0 0;
#X connect 3 0 10 0;
#X connect 4 0 16 0;
#X connect 5 0 15 2;
#X connect 6 0 15 0;
#X connect 7 0 6 0;
#X connect 9 0 14 0;
#X connect 10 0 13 0;
#X connect 11 0 4 0;
#X connect 12 0 4 0;
#X connect 13 0 14 0;
#X connect 13 1 9 0;
#X connect 13 2 12 0;
#X connect 14 0 11 0;
#X connect 15 0 19 0;
#X connect 16 0 7 0;
#X connect 16 1 18 0;
#X connect 16 2 2 0;
#X connect 17 0 15 1;
#X connect 18 0 17 0;
#X connect 19 0 8 0;
#X coords 0 -1 1 1 50 50 1 0 0;
