#N canvas 461 118 1000 586 12;
#X obj 230 32 inlet message;
#X obj 220 583 outlet message;
#X obj 236 88 list_contain 1 file_explorer;
#X obj 192 306 openpanel;
#X obj 191 266 symbol;
#X symbolatom 121 56 10 0 0 0 new_file_name - -;
#X obj 588 408 spigot;
#X obj 626 384 tgl 15 0 empty empty empty 17 7 0 10 -262144 -1 -1 0
1;
#X msg 628 354 1;
#X msg 664 354 0;
#X obj 713 8 loadbang;
#X obj 715 35 bng 15 250 50 0 empty empty empty 17 7 0 10 -262144 -1
-1;
#X symbolatom 121 34 10 0 0 0 new_file_folder - -;
#X msg 725 121 symbol;
#X msg 320 368 load;
#X obj 320 399 symbol;
#X obj 206 504 pack s s s;
#X obj 256 408 symbol;
#X obj 232 142 list_contain 2 open;
#X obj 481 194 list_contain 2 new;
#X msg 273 357 \$3;
#X obj 535 586 print b;
#X msg 205 540 file_explorer action=\$3 type=\$2 path=\$1;
#X msg 192 228 \$4;
#X obj 718 406 spigot;
#X obj 756 382 tgl 15 0 empty empty empty 17 7 0 10 -262144 -1 -1 0
1;
#X msg 758 352 1;
#X msg 794 352 0;
#X obj 235 179 t l l;
#X obj 651 297 t b b b;
#X obj 438 422 symbol;
#X obj 506 416 symbol;
#X msg 508 389 \$3;
#X msg 438 391 new, f 4;
#X obj 584 463 pack s s s s;
#X obj 488 294 t l l;
#X msg 530 530 file_explorer action=\$1 type=\$2 name=\$3 path=\$4
;
#X obj 476 246 t b l;
#X connect 0 0 2 0;
#X connect 2 0 19 0;
#X connect 2 0 18 0;
#X connect 3 0 16 0;
#X connect 4 0 3 0;
#X connect 5 0 6 0;
#X connect 6 0 34 2;
#X connect 7 0 6 1;
#X connect 8 0 7 0;
#X connect 9 0 7 0;
#X connect 10 0 11 0;
#X connect 11 0 9 0;
#X connect 11 0 13 0;
#X connect 11 0 27 0;
#X connect 12 0 24 0;
#X connect 13 0 5 0;
#X connect 13 0 12 0;
#X connect 14 0 15 0;
#X connect 15 0 16 2;
#X connect 16 0 22 0;
#X connect 17 0 16 1;
#X connect 18 0 28 0;
#X connect 19 0 37 0;
#X connect 20 0 17 0;
#X connect 22 0 1 0;
#X connect 23 0 4 0;
#X connect 24 0 34 3;
#X connect 25 0 24 1;
#X connect 26 0 25 0;
#X connect 27 0 25 0;
#X connect 28 0 23 0;
#X connect 28 1 20 0;
#X connect 28 1 14 0;
#X connect 29 0 9 0;
#X connect 29 0 27 0;
#X connect 29 1 5 0;
#X connect 29 1 12 0;
#X connect 29 2 26 0;
#X connect 29 2 8 0;
#X connect 30 0 34 0;
#X connect 31 0 34 1;
#X connect 32 0 31 0;
#X connect 33 0 30 0;
#X connect 34 0 36 0;
#X connect 35 0 33 0;
#X connect 35 1 29 0;
#X connect 35 1 32 0;
#X connect 36 0 1 0;
#X connect 36 0 21 0;
#X connect 37 0 13 0;
#X connect 37 1 35 0;
#X coords 0 -1 1 1 200 80 1 0 0;
