#N canvas 616 309 845 395 12;
#X obj 230 32 inlet message;
#X obj 212 344 outlet message;
#X obj 236 66 list_contain 1 file_explorer;
#X obj 237 102 list_contain 2 open;
#X obj 235 216 openpanel;
#X obj 234 176 symbol;
#X msg 235 138 \$3;
#X msg 221 266 file_explorer action=load path=\$1;
#X symbolatom 121 56 10 0 0 0 new_file_name - -;
#X obj 472 112 list_contain 2 new;
#X obj 471 236 spigot;
#X obj 509 212 tgl 15 0 empty empty empty 17 7 0 10 -262144 -1 -1 0
1;
#X msg 511 182 1;
#X msg 547 182 0;
#X obj 713 8 loadbang;
#X obj 715 35 bng 15 250 50 0 empty empty empty 17 7 0 10 -262144 -1
-1;
#X obj 475 148 t b b b;
#X obj 555 237 bng 15 250 50 0 empty empty empty 17 7 0 10 -262144
-1 -1;
#X msg 472 266 file_explorer action=new name=\$1;
#X symbolatom 121 36 10 0 0 0 new_file_folder - -;
#X msg 717 118 symbol;
#X connect 0 0 2 0;
#X connect 2 0 3 0;
#X connect 2 0 9 0;
#X connect 3 0 6 0;
#X connect 4 0 7 0;
#X connect 5 0 4 0;
#X connect 6 0 5 0;
#X connect 7 0 1 0;
#X connect 8 0 10 0;
#X connect 9 0 16 0;
#X connect 10 0 18 0;
#X connect 10 0 17 0;
#X connect 11 0 10 1;
#X connect 12 0 11 0;
#X connect 13 0 11 0;
#X connect 14 0 15 0;
#X connect 15 0 13 0;
#X connect 15 0 20 0;
#X connect 16 0 13 0;
#X connect 16 0 20 0;
#X connect 16 1 8 0;
#X connect 16 2 12 0;
#X connect 18 0 1 0;
#X connect 20 0 8 0;
#X connect 20 0 19 0;
#X coords 0 -1 1 1 200 80 1 0 0;
