#N canvas 956 163 743 430 12;
#X obj 7 20 bng 30 250 50 0 empty empty empty 17 7 0 10 -261689 -33289
-1;
#X obj 25 342 expr \$1;
#X obj 8 57 tgl 15 0 empty empty held 17 7 0 10 -228856 -1 -1 0 1;
#X obj 506 10 inlet midi;
#X msg 302 590 stop;
#X obj 302 502 bng 15 250 50 0 empty empty release_soon 17 7 0 10 -262144
-1 -1;
#X msg 292 676 0;
#X msg 334 677 1;
#X obj 300 536 t b b b;
#X obj 252 631 delay 100 1 msec;
#X obj 29 535 outlet message;
#X obj 26 310 t b f;
#X msg 137 370 pressed;
#X msg 83 371 leaved;
#X obj 86 340 sel 0 1;
#X obj 108 403 symbol;
#X obj 343 42 list_contain 2 \$1;
#X obj 344 8 inlet message;
#X obj 323 196 list_contain 3 color;
#X obj 482 195 list_contain 3 speed;
#X obj 635 195 list_contain 3 intensity;
#X msg 321 223 \$4;
#X floatatom 150 19 5 0 0 0 color_code - -;
#X msg 150 51 color \$1;
#X msg 665 306 16;
#X floatatom 641 267 5 0 0 0 intensity - -;
#X symbolatom 321 279 10 0 0 0 color_name - -;
#X obj 322 249 symbol;
#X floatatom 486 258 5 0 0 0 speed - -;
#X msg 485 226 \$4;
#X msg 642 230 \$4;
#X msg 795 449 0;
#X obj 875 358 expr $f2==0;
#X obj 876 391 sel 1;
#X obj 1037 450 expr $f2<=0.5;
#X obj 1037 478 sel 1;
#X obj 581 421 metro;
#X obj 488 331 sel 0;
#X msg 571 390 0;
#X msg 606 390 1;
#X obj 499 474 tgl 15 0 empty empty hight/low 17 7 0 10 -262144 -1
-1 1 1;
#X msg 499 408 1;
#X obj 493 377 t b b;
#X obj 488 291 expr $f1 > 0;
#X obj 837 207 bng 15 250 50 0 empty empty update_color 17 7 0 10 -262144
-1 -1;
#X obj 499 518 t b f;
#X obj 830 314 sel 0;
#X obj 869 652 spigot;
#X obj 905 627 tgl 15 0 empty empty empty 17 7 0 10 -262144 -1 -1 0
1;
#X msg 880 594 0;
#X msg 910 595 1;
#X obj 872 507 bng 15 250 50 0 empty empty get_color 17 7 0 10 -262144
-1 -1;
#X obj 794 363 bng 15 250 50 0 empty empty low_state 17 7 0 10 -262144
-1 -1;
#X obj 852 435 bng 15 250 50 0 empty empty switched_off 17 7 0 10 -262144
-1 -1;
#X obj 871 565 t b b b;
#X obj 343 86 t b a b;
#X floatatom 854 808 5 0 0 0 color_code - -;
#X msg 969 749 3;
#X msg 1007 747 4;
#X msg 1042 748 5;
#X msg 1074 747 6;
#X msg 1109 748 7;
#X msg 1167 749 8;
#X msg 1202 750 9;
#X obj 868 697 sel white grey black red orange yellow green emerald
blue pink;
#X msg 855 753 0;
#X msg 890 754 1;
#X msg 934 748 2;
#X obj 867 529 t b b;
#X obj 985 545 bng 15 250 50 0 empty empty low_intensity 17 7 0 10
-262144 -1 -1;
#X obj 1123 544 bng 15 250 50 0 empty empty high_intensity 17 7 0 10
-262144 -1 -1;
#X obj 1100 605 expr $f2 + 10;
#X obj 836 280 expr $f2;
#X obj 738 11 loadbang;
#X obj 743 49 bng 15 250 50 0 empty empty init 17 7 0 10 -262144 -1
-1;
#X msg 456 446 1;
#X msg 132 91 1;
#X obj 248 70 bng 15 250 50 0 empty empty init 17 7 0 10 -262144 -1
-1;
#X obj 238 5 loadbang;
#X msg 34 462 pad number=\$1 action=\$2 velocity=\$3;
#X obj 33 430 pack f s f;
#X obj 57 47 vsl 15 25 0 1 0 0 empty empty vel 0 -9 0 10 -228856 -1
-1 2400 1;
#X obj 45 21 hsl 25 10 0 1 0 0 empty empty empty -2 -8 0 10 -261689
-1 -1 480 1;
#X connect 0 0 5 0;
#X connect 1 0 80 0;
#X connect 2 0 11 0;
#X connect 3 0 2 0;
#X connect 4 0 9 0;
#X connect 5 0 8 0;
#X connect 6 0 2 0;
#X connect 7 0 2 0;
#X connect 8 0 9 0;
#X connect 8 1 4 0;
#X connect 8 2 7 0;
#X connect 9 0 6 0;
#X connect 11 0 1 0;
#X connect 11 1 14 0;
#X connect 12 0 15 0;
#X connect 13 0 15 0;
#X connect 14 0 13 0;
#X connect 14 1 12 0;
#X connect 15 0 80 1;
#X connect 16 0 55 0;
#X connect 17 0 16 0;
#X connect 18 0 21 0;
#X connect 19 0 29 0;
#X connect 20 0 30 0;
#X connect 21 0 27 0;
#X connect 22 0 23 0;
#X connect 23 0 0 0;
#X connect 23 0 82 0;
#X connect 25 0 32 1;
#X connect 25 0 34 1;
#X connect 25 0 82 0;
#X connect 26 0 47 0;
#X connect 27 0 26 0;
#X connect 28 0 36 1;
#X connect 28 0 43 0;
#X connect 29 0 28 0;
#X connect 30 0 25 0;
#X connect 31 0 56 0;
#X connect 32 0 33 0;
#X connect 33 0 53 0;
#X connect 33 1 51 0;
#X connect 34 0 35 0;
#X connect 35 0 69 0;
#X connect 35 1 70 0;
#X connect 36 0 40 0;
#X connect 37 0 42 0;
#X connect 37 1 39 0;
#X connect 38 0 36 0;
#X connect 39 0 36 0;
#X connect 40 0 45 0;
#X connect 41 0 40 0;
#X connect 42 0 41 0;
#X connect 42 1 38 0;
#X connect 43 0 37 0;
#X connect 44 0 72 0;
#X connect 45 0 44 0;
#X connect 45 1 72 1;
#X connect 46 0 52 0;
#X connect 46 1 32 0;
#X connect 47 0 64 0;
#X connect 48 0 47 1;
#X connect 49 0 48 0;
#X connect 50 0 48 0;
#X connect 51 0 68 0;
#X connect 52 0 31 0;
#X connect 53 0 31 0;
#X connect 54 0 49 0;
#X connect 54 1 26 0;
#X connect 54 2 50 0;
#X connect 55 0 44 0;
#X connect 55 1 19 0;
#X connect 55 1 20 0;
#X connect 55 1 18 0;
#X connect 55 2 49 0;
#X connect 56 0 22 0;
#X connect 56 0 71 1;
#X connect 57 0 56 0;
#X connect 58 0 56 0;
#X connect 59 0 56 0;
#X connect 60 0 56 0;
#X connect 61 0 56 0;
#X connect 62 0 56 0;
#X connect 63 0 56 0;
#X connect 64 0 65 0;
#X connect 64 1 66 0;
#X connect 64 2 67 0;
#X connect 64 3 57 0;
#X connect 64 4 58 0;
#X connect 64 5 59 0;
#X connect 64 6 60 0;
#X connect 64 7 61 0;
#X connect 64 8 62 0;
#X connect 64 9 63 0;
#X connect 65 0 56 0;
#X connect 66 0 56 0;
#X connect 67 0 56 0;
#X connect 68 0 34 0;
#X connect 68 1 54 0;
#X connect 70 0 71 0;
#X connect 71 0 56 0;
#X connect 72 0 46 0;
#X connect 73 0 74 0;
#X connect 74 0 75 0;
#X connect 75 0 40 0;
#X connect 76 0 81 0;
#X connect 77 0 76 0;
#X connect 78 0 77 0;
#X connect 79 0 10 0;
#X connect 80 0 79 0;
#X connect 81 0 80 2;
#X coords 0 -1 1 1 80 80 1 0 0;
