#N canvas 885 355 845 395 12;
#X obj 7 26 bng 15 250 50 0 empty empty up 17 7 0 10 -260097 -1 -1
;
#X obj 7 43 bng 15 250 50 0 empty empty down 17 7 0 10 -260097 -1 -1
;
#X obj 7 61 bng 15 250 50 0 empty empty stop 17 7 0 10 -258113 -1 -1
;
#X symbolatom 8 79 10 0 0 1 state - -;
#X obj 197 188 symbol;
#X msg 324 145 stopped;
#X msg 173 148 going_up;
#X msg 242 146 going_down;
#X obj 165 440 outlet;
#X obj 68 56 bng 15 250 50 0 empty empty send 17 7 0 10 -262144 -1
-1;
#X msg 450 60 1;
#X msg 483 60 0;
#X obj 304 42 t b b;
#X obj 305 109 t b b;
#X obj 303 227 list append \$1;
#X obj 345 382 print;
#X obj 565 229 symbol;
#X floatatom 69 34 5 0 0 1 speed - -;
#X obj 619 93 bng 15 250 50 0 empty empty empty 17 7 0 10 -262144 -1
-1;
#X obj 616 71 loadbang;
#X obj 451 91 metro;
#X obj 312 260 symbol;
#X msg 218 36 500;
#X obj 341 298 pack s s;
#X obj 366 186 t b;
#X msg 536 180 1;
#X msg 577 179 -1;
#X msg 345 340 wheel section=\$1 value=\$2;
#X connect 0 0 6 0;
#X connect 0 0 12 0;
#X connect 1 0 7 0;
#X connect 1 0 13 0;
#X connect 2 0 5 0;
#X connect 2 0 11 0;
#X connect 4 0 3 0;
#X connect 5 0 4 0;
#X connect 6 0 4 0;
#X connect 7 0 4 0;
#X connect 10 0 20 0;
#X connect 11 0 20 0;
#X connect 12 0 10 0;
#X connect 12 1 25 0;
#X connect 13 0 10 0;
#X connect 13 1 26 0;
#X connect 14 0 21 0;
#X connect 16 0 23 1;
#X connect 17 0 20 1;
#X connect 18 0 22 0;
#X connect 18 0 5 0;
#X connect 18 0 11 0;
#X connect 19 0 18 0;
#X connect 20 0 9 0;
#X connect 20 0 24 0;
#X connect 21 0 23 0;
#X connect 22 0 17 0;
#X connect 23 0 27 0;
#X connect 24 0 14 0;
#X connect 25 0 16 0;
#X connect 26 0 16 0;
#X connect 27 0 15 0;
#X connect 27 0 8 0;
#X coords 0 -1 1 1 150 100 1 0 0;
