#N canvas 616 309 845 395 12;
#X obj 318 10 inlet message;
#X obj 532 12 inlet~ sound;
#X obj 534 311 outlet~ sound;
#X obj 199 11 loadbang;
#X obj 198 39 bng 15 250 50 0 empty empty init 17 7 0 10 -262144 -1
-1;
#X obj 271 310 outlet message;
#X obj 322 126 list_contain 5 edit_parameter;
#X msg 328 175 \$6 \$7;
#X floatatom 102 63 5 0 0 0 low - -;
#X floatatom 102 84 5 0 0 0 medium - -;
#X floatatom 102 106 5 0 0 0 high - -;
#X obj 332 222 route low medium high;
#X obj 88 32 tgl 15 0 empty empty active 17 7 0 10 -262144 -1 -1 0
1;
#X obj 320 81 list_contain 4 equalizer_audio_effect;
#X msg 96 262 \$3;
#X obj 96 227 list_contain 3 activated;
#X connect 0 0 13 0;
#X connect 0 0 15 0;
#X connect 1 0 2 0;
#X connect 3 0 4 0;
#X connect 6 0 7 0;
#X connect 7 0 11 0;
#X connect 11 0 8 0;
#X connect 11 1 9 0;
#X connect 11 2 10 0;
#X connect 13 0 6 0;
#X connect 14 0 12 0;
#X connect 15 0 14 0;
#X coords 0 -1 1 1 150 150 1 0 0;
