#N canvas 107 290 845 395 12;
#X obj 58 33 tgl 15 0 empty empty activated 17 7 0 10 -262144 -1 -1
0 1;
#X floatatom 96 66 5 0 0 0 level - -;
#X floatatom 96 90 5 0 0 0 time - -;
#X floatatom 95 113 5 0 0 0 tone - -;
#X obj 429 239 route level time tone;
#X obj 484 17 inlet~ sound;
#X obj 471 356 outlet~ sound;
#X obj 206 20 inlet message;
#X obj 221 64 list_contain 4 reverb_audio_effect;
#X obj 452 120 list_contain 5 edit_parameter;
#X msg 438 169 \$6 \$7;
#X obj 233 130 list_contain 5 activated;
#X msg 233 171 \$6;
#X obj 231 359 outlet message;
#X connect 4 0 1 0;
#X connect 4 1 2 0;
#X connect 4 2 3 0;
#X connect 5 0 6 0;
#X connect 7 0 8 0;
#X connect 8 0 9 0;
#X connect 8 0 11 0;
#X connect 9 0 10 0;
#X connect 10 0 4 0;
#X connect 11 0 12 0;
#X connect 12 0 0 0;
#X coords 0 -1 1 1 150 150 1 0 0;
