#N canvas 616 309 845 395 12;
#X obj 318 10 inlet message;
#X obj 532 12 inlet~ sound;
#X obj 534 311 outlet~ sound;
#X obj 199 11 loadbang;
#X obj 198 39 bng 15 250 50 0 empty empty init 17 7 0 10 -262144 -1
-1;
#X obj 271 310 outlet message;
#X obj 322 126 list_contain 5 edit_parameter;
#X msg 328 175 \$6 \$7;
#X obj 320 81 list_contain 4 reverb;
#X floatatom 104 61 5 0 0 0 level - -;
#X floatatom 104 82 5 0 0 0 time - -;
#X floatatom 104 104 5 0 0 0 tone - -;
#X obj 332 222 route level time tone;
#X obj 88 34 tgl 15 0 empty empty active 17 7 0 10 -262144 -1 -1 0
1;
#X connect 0 0 8 0;
#X connect 1 0 2 0;
#X connect 3 0 4 0;
#X connect 6 0 7 0;
#X connect 7 0 12 0;
#X connect 8 0 6 0;
#X connect 12 0 9 0;
#X connect 12 1 10 0;
#X connect 12 2 11 0;
#X coords 0 -1 1 1 150 150 1 0 0;
