#N canvas 310 174 1562 512 12;
#X obj 268 10 inlet message;
#X floatatom 103 94 5 0 0 2 beat - -;
#X floatatom 62 94 5 0 0 2 bar - -;
#X obj 276 55 list_contain 1 sequencer;
#X obj 574 49 bng 15 250 50 0 empty empty tick 17 7 0 10 -262144 -1
-1;
#X msg 557 327 1;
#X msg 592 327 0;
#X floatatom 53 46 5 0 0 0 bpm - -;
#X floatatom 557 254 5 0 0 0 speed - -;
#X obj 571 359 metro;
#X obj 659 273 bng 15 250 50 0 empty empty start 17 7 0 10 -262144
-1 -1;
#X obj 715 271 bng 15 250 50 0 empty empty stop 17 7 0 10 -262144 -1
-1;
#X floatatom 678 163 5 0 0 0 step - -;
#X obj 535 84 min 400;
#X obj 896 222 t a a;
#X obj 540 122 t a b;
#X obj 546 221 expr 60000 / ($f1*$f2);
#X obj 678 187 min 24;
#X obj 673 365 outlet message;
#X obj 895 118 list_contain 2 bpm;
#X msg 898 260 \$3;
#X msg 941 262 \$5;
#X obj 1404 284 print ---;
#X msg 274 127 \$3 \$4;
#X obj 279 97 list_contain 2 position;
#X floatatom 144 94 5 0 0 2 tick - -;
#X obj 98 24 bng 15 250 50 0 empty empty panic 17 7 0 10 -258113 -1
-1;
#X obj 1117 216 route play pause;
#X obj 1113 116 list_contain 2 clock;
#X msg 1113 182 \$3;
#X msg 673 332 sequencer action=ticked;
#X obj 895 181 list_contain 4 ticks_by_beat;
#X floatatom 22 94 5 0 0 2 turn - -;
#X obj 201 225 route turn bar beat step tick;
#X obj 98 49 tgl 15 0 empty empty metronome 17 7 0 10 -262130 -1 -1
1 1;
#X obj 1297 111 list_contain 2 metronome;
#X obj 1295 147 list_contain 3 play;
#X msg 1289 183 \$4;
#X obj 1209 347 spigot;
#X obj 1303 347 spigot;
#X obj 114 122 bng 15 250 50 0 empty empty on_beat 17 7 0 10 -262144
-1 -1;
#X obj 47 121 bng 15 250 50 0 empty empty on_bar 17 7 0 10 -262144
-1 -1;
#X obj 1287 236 route on_beat on_bar;
#X obj 1315 212 bng 15 250 50 0 empty empty empty 17 7 0 10 -262144
-1 -1;
#X connect 0 0 3 0;
#X connect 3 0 19 0;
#X connect 3 0 24 0;
#X connect 3 0 28 0;
#X connect 3 0 35 0;
#X connect 4 0 30 0;
#X connect 5 0 9 0;
#X connect 6 0 9 0;
#X connect 7 0 13 0;
#X connect 8 0 9 1;
#X connect 9 0 4 0;
#X connect 10 0 5 0;
#X connect 11 0 6 0;
#X connect 12 0 17 0;
#X connect 13 0 15 0;
#X connect 14 0 20 0;
#X connect 14 1 21 0;
#X connect 15 0 16 0;
#X connect 15 1 12 0;
#X connect 16 0 8 0;
#X connect 17 0 16 1;
#X connect 19 0 31 0;
#X connect 20 0 7 0;
#X connect 21 0 12 0;
#X connect 23 0 33 0;
#X connect 24 0 23 0;
#X connect 26 0 11 0;
#X connect 27 0 10 0;
#X connect 27 1 11 0;
#X connect 28 0 29 0;
#X connect 29 0 27 0;
#X connect 30 0 18 0;
#X connect 31 0 14 0;
#X connect 33 0 32 0;
#X connect 33 1 2 0;
#X connect 33 2 1 0;
#X connect 33 4 25 0;
#X connect 34 0 38 1;
#X connect 34 0 39 1;
#X connect 35 0 36 0;
#X connect 36 0 37 0;
#X connect 37 0 42 0;
#X connect 37 0 43 0;
#X connect 38 0 40 0;
#X connect 39 0 41 0;
#X connect 42 0 38 0;
#X connect 42 1 39 0;
#X connect 42 2 22 0;
#X coords 0 -1 1 1 200 150 1 0 0;
