#N canvas 639 174 845 395 12;
#X obj 200 12 inlet message;
#X floatatom 99 99 5 0 0 0 step - -;
#X floatatom 99 119 5 0 0 0 beat - -;
#X floatatom 99 139 5 0 0 0 bar - -;
#X obj 208 57 list_contain 1 sequencer;
#X floatatom 99 166 5 0 0 0 repetition - -;
#X obj 506 51 bng 15 250 50 0 empty empty tick 17 7 0 10 -262144 -1
-1;
#X msg 489 329 1;
#X msg 524 329 0;
#X floatatom 100 23 5 0 0 0 bpm - -;
#X floatatom 489 256 5 0 0 0 speed - -;
#X obj 503 361 metro;
#X obj 591 275 bng 15 250 50 0 empty empty start 17 7 0 10 -262144
-1 -1;
#X obj 647 273 bng 15 250 50 0 empty empty stop 17 7 0 10 -262144 -1
-1;
#X floatatom 610 165 5 0 0 0 step - -;
#X obj 467 86 min 400;
#X obj 828 224 t a a;
#X obj 472 124 t a b;
#X obj 478 223 expr 60000 / ($f1*$f2);
#X obj 610 189 min 24;
#X obj 605 367 outlet message;
#X obj 828 158 list_contain 2 bpm;
#X msg 830 262 \$3;
#X msg 873 264 \$5;
#X obj 827 183 list_contain 4 step_by_beat;
#X obj 375 141 print ---;
#X msg 206 129 \$3 \$4;
#X obj 211 99 list_contain 2 position;
#X floatatom 99 63 5 0 0 0 tick - -;
#X obj 208 183 route step beat bar repetition tick;
#X obj 12 50 bng 15 250 50 0 empty empty panic 17 7 0 10 -258113 -1
-1;
#X obj 1071 221 route play pause;
#X obj 1065 155 list_contain 2 clock;
#X msg 1071 191 \$3;
#X msg 605 334 sequencer action=ticked;
#X connect 0 0 4 0;
#X connect 4 0 21 0;
#X connect 4 0 25 0;
#X connect 4 0 27 0;
#X connect 4 0 32 0;
#X connect 6 0 34 0;
#X connect 7 0 11 0;
#X connect 8 0 11 0;
#X connect 9 0 15 0;
#X connect 10 0 11 1;
#X connect 11 0 6 0;
#X connect 12 0 7 0;
#X connect 13 0 8 0;
#X connect 14 0 19 0;
#X connect 15 0 17 0;
#X connect 16 0 22 0;
#X connect 16 1 23 0;
#X connect 17 0 18 0;
#X connect 17 1 14 0;
#X connect 18 0 10 0;
#X connect 19 0 18 1;
#X connect 21 0 24 0;
#X connect 22 0 9 0;
#X connect 23 0 14 0;
#X connect 24 0 16 0;
#X connect 26 0 29 0;
#X connect 27 0 26 0;
#X connect 29 0 1 0;
#X connect 29 1 2 0;
#X connect 29 2 3 0;
#X connect 29 3 5 0;
#X connect 29 4 28 0;
#X connect 30 0 13 0;
#X connect 31 0 12 0;
#X connect 31 1 13 0;
#X connect 32 0 33 0;
#X connect 33 0 31 0;
#X connect 34 0 20 0;
#X coords 0 -1 1 1 150 200 1 0 0;
