#N canvas 148 138 845 574 12;
#X obj 58 20 tgl 15 0 empty empty use 17 7 0 10 -262144 -1 -1 0 1;
#X obj 137 11 inlet~ sound;
#X obj 258 503 outlet~ sound;
#X floatatom 58 39 4 0 999 0 time - -;
#X floatatom 59 80 4 0 999 0 repeat - -;
#X floatatom 58 60 5 0 0 0 level - -;
#X obj 268 462 *~;
#X obj 216 226 delay_effect_line 0;
#X obj 398 227 delay_effect_line 1;
#X obj 591 227 delay_effect_line 2;
#X connect 0 0 6 1;
#X connect 1 0 8 0;
#X connect 1 0 7 0;
#X connect 1 0 9 0;
#X connect 1 0 2 0;
#X connect 3 0 8 1;
#X connect 3 0 7 1;
#X connect 3 0 9 1;
#X connect 5 0 8 2;
#X connect 5 0 7 2;
#X connect 5 0 9 2;
#X connect 6 0 2 0;
#X connect 7 0 6 0;
#X connect 8 0 6 0;
#X connect 9 0 6 0;
#X coords 0 -1 1 1 100 100 1 0 0;
