#N canvas 616 130 845 574 12;
#X obj 137 37 inlet~ sound;
#X obj 329 441 outlet~ sound;
#X obj 330 380 *~;
#X obj 159 117 delwrite~ \$0-delay 1000;
#X obj 330 341 delread~ \$0-delay;
#X obj 250 33 inlet time;
#X obj 343 38 inlet level;
#X floatatom 53 14 5 0 0 0 - - -;
#X floatatom 53 46 5 0 0 0 - - -;
#X obj 428 216 expr $f1 / (\$1 + 1);
#X obj 257 226 expr $f1 * (\$1 + 1);
#X connect 0 0 3 0;
#X connect 2 0 1 0;
#X connect 4 0 2 0;
#X connect 5 0 10 0;
#X connect 6 0 9 0;
#X connect 9 0 2 1;
#X connect 9 0 8 0;
#X connect 10 0 4 0;
#X connect 10 0 7 0;
#X coords 0 -1 1 1 100 80 1 0 0;
