#N canvas 616 130 845 574 12;
#X obj 355 14 inlet message;
#X obj 538 18 inlet~ sound;
#X floatatom 107 35 5 0 0 0 volume - -;
#X floatatom 107 55 5 0 0 0 output_channel - -;
#X obj 534 522 outlet~ sound;
#X obj 667 522 outlet output;
#X obj 833 170 *~;
#X obj 881 143 line;
#X msg 881 118 \$1 20;
#X obj 187 14 loadbang;
#X obj 186 42 bng 15 250 50 0 empty empty init 17 7 0 10 -262144 -1
-1;
#X obj 351 518 outlet message;
#X obj 361 135 list_contain 3 edit_parameter;
#X msg 371 170 \$4 \$5;
#X obj 369 229 route output_channel volume;
#X obj 360 85 list_contain 2 \$1;
#X floatatom 107 99 5 0 0 0 reverb - -;
#X floatatom 107 119 5 0 0 0 echo - -;
#X floatatom 107 141 5 0 0 0 chorus - -;
#X obj 576 228 route reverb echo chorus;
#X connect 0 0 15 0;
#X connect 1 0 6 0;
#X connect 2 0 8 0;
#X connect 3 0 5 0;
#X connect 6 0 4 0;
#X connect 7 0 6 1;
#X connect 8 0 7 0;
#X connect 9 0 10 0;
#X connect 12 0 13 0;
#X connect 13 0 14 0;
#X connect 13 0 19 0;
#X connect 14 0 3 0;
#X connect 14 1 2 0;
#X connect 15 0 12 0;
#X connect 19 0 16 0;
#X connect 19 1 17 0;
#X connect 19 2 18 0;
#X coords 0 -1 1 1 150 250 1 0 0;
