#N canvas 616 309 845 395 12;
#X obj 537 119 inlet~ phone_output;
#X obj 695 117 inlet~ output_0;
#X obj 1012 160 inlet~ output_3;
#X obj 842 114 inlet~ output_1;
#X obj 988 111 inlet~ output_2;
#X obj 11 38 audio_output_track phone;
#X obj 129 39 audio_output_track 0;
#X obj 198 39 audio_output_track 1;
#X obj 266 40 audio_output_track 2;
#X obj 335 39 audio_output_track 3;
#X connect 0 0 5 0;
#X connect 0 0 5 1;
#X connect 1 0 6 0;
#X connect 1 0 6 1;
#X connect 2 0 9 0;
#X connect 2 0 9 1;
#X connect 3 0 7 0;
#X connect 3 0 7 1;
#X connect 4 0 8 0;
#X connect 4 0 8 1;
#X coords 0 -1 1 1 400 250 1 0 0;
