#N canvas 578 382 845 395 12;
#X obj 213 231 dac~;
#X obj 353 490 t b;
#X obj 353 437 f;
#X obj 353 515 f;
#X msg 467 514 0;
#X obj 353 467 moses 1;
#X obj 467 486 t b f;
#X obj 433 447 moses 1;
#X obj 125 92 dbtorms;
#X obj 181 165 inlet~;
#X msg 299 310 \; pd dsp 1;
#X obj 125 165 line~;
#X obj 160 237 *~;
#X obj 160 267 dac~;
#X obj 125 122 pack 0 50;
#X floatatom 323 219 3 0 100 0 dB - -;
#X obj 244 165 inlet~;
#X obj 250 236 *~;
#X obj 323 174 r \$0-master-lvl;
#X obj 353 541 s \$0-master-lvl;
#X obj 323 279 s \$0-master-out;
#X obj 113 43 r \$0-master-out;
#X obj 433 418 r \$0-master-out;
#X obj 181 187 hip~ 3;
#X obj 243 187 hip~ 3;
#X obj 9 32 vsl 15 128 0 100 0 0 empty empty volume 0 -9 0 10 -261234
-1 -1 12700 1;
#X obj 338 35 loadbang;
#X obj 336 74 bng 15 250 50 0 empty empty empty 17 7 0 10 -262144 -1
-1;
#X msg 336 94 100;
#X obj 353 401 bng 15 250 50 0 empty empty mute 17 7 0 10 -262144 -1
-1;
#X obj 11 177 tgl 15 0 empty empty mute 17 7 0 10 -262144 -1 -1 0 1
;
#X connect 1 0 3 0;
#X connect 2 0 5 0;
#X connect 3 0 19 0;
#X connect 4 0 19 0;
#X connect 5 0 1 0;
#X connect 5 1 6 0;
#X connect 6 0 4 0;
#X connect 7 1 3 1;
#X connect 8 0 14 0;
#X connect 9 0 23 0;
#X connect 11 0 17 0;
#X connect 11 0 12 0;
#X connect 12 0 13 0;
#X connect 14 0 11 0;
#X connect 15 0 10 0;
#X connect 15 0 20 0;
#X connect 16 0 24 0;
#X connect 17 0 13 1;
#X connect 18 0 15 0;
#X connect 21 0 8 0;
#X connect 22 0 2 1;
#X connect 22 0 7 0;
#X connect 23 0 12 1;
#X connect 24 0 17 1;
#X connect 25 0 15 0;
#X connect 26 0 27 0;
#X connect 27 0 28 0;
#X connect 28 0 25 0;
#X connect 29 0 2 0;
#X connect 30 0 29 0;
#X coords 0 -1 1 1 60 200 2 0 0;
